<svg width="811" height="456" viewBox="0 0 811 456" fill="none" xmlns="http://www.w3.org/2000/svg">
    <rect x="153.667" y="197" width="14.2222" height="72" rx="7.11111" fill="black"/>
    <rect x="100.333" y="197" width="14.2222" height="72" rx="7.11111" fill="black"/>
    <rect x="180.333" y="173" width="14.2222" height="96" rx="7.11111" fill="black"/>
    <rect x="73.6665" y="173" width="14.2222" height="96" rx="7.11111" fill="black"/>
    <rect x="207" y="141" width="14.2222" height="128" rx="7.11111" fill="black"/>
    <rect x="47" y="141" width="14.2222" height="128" rx="7.11111" fill="black"/>
    <rect x="127" y="221" width="14.2222" height="48" rx="7.11111" fill="black"/>
    <path d="M304.472 227.472C304.472 230.544 304.387 232.891 304.216 234.512H246.232C246.488 239.803 247.768 244.325 250.072 248.08C252.376 251.835 255.405 254.693 259.16 256.656C262.915 258.533 267.011 259.472 271.448 259.472C277.251 259.472 282.115 258.064 286.04 255.248C290.051 252.432 292.696 248.635 293.976 243.856H303.448C301.741 250.683 298.072 256.272 292.44 260.624C286.893 264.891 279.896 267.024 271.448 267.024C264.877 267.024 258.989 265.573 253.784 262.672C248.579 259.685 244.483 255.504 241.496 250.128C238.595 244.667 237.144 238.309 237.144 231.056C237.144 223.803 238.595 217.445 241.496 211.984C244.397 206.523 248.451 202.341 253.656 199.44C258.861 196.539 264.792 195.088 271.448 195.088C278.104 195.088 283.907 196.539 288.856 199.44C293.891 202.341 297.731 206.267 300.376 211.216C303.107 216.08 304.472 221.499 304.472 227.472ZM295.384 227.216C295.469 222.011 294.403 217.573 292.184 213.904C290.051 210.235 287.107 207.461 283.352 205.584C279.597 203.707 275.501 202.768 271.064 202.768C264.408 202.768 258.733 204.901 254.04 209.168C249.347 213.435 246.744 219.451 246.232 227.216H295.384ZM354.913 194.832C363.276 194.832 370.102 197.435 375.393 202.64C380.684 207.76 383.329 215.227 383.329 225.04V266H374.497V226.064C374.497 218.469 372.577 212.667 368.737 208.656C364.982 204.645 359.82 202.64 353.249 202.64C346.508 202.64 341.132 204.773 337.121 209.04C333.11 213.307 331.105 219.579 331.105 227.856V266H322.145V196.112H331.105V208.016C333.324 203.749 336.524 200.507 340.705 198.288C344.886 195.984 349.622 194.832 354.913 194.832ZM416.073 203.664V247.056C416.073 251.323 416.884 254.267 418.505 255.888C420.126 257.509 422.985 258.32 427.081 258.32H435.273V266H425.673C419.358 266 414.665 264.549 411.593 261.648C408.521 258.661 406.985 253.797 406.985 247.056V203.664H397.257V196.112H406.985V178.576H416.073V196.112H435.273V203.664H416.073ZM455.81 182.928C454.018 182.928 452.482 182.288 451.202 181.008C449.922 179.728 449.282 178.149 449.282 176.272C449.282 174.395 449.922 172.859 451.202 171.664C452.482 170.384 454.018 169.744 455.81 169.744C457.602 169.744 459.138 170.384 460.418 171.664C461.698 172.859 462.338 174.395 462.338 176.272C462.338 178.149 461.698 179.728 460.418 181.008C459.138 182.288 457.602 182.928 455.81 182.928ZM460.29 196.112V266H451.33V196.112H460.29ZM506.692 257.296L530.244 196.112H539.716L511.684 266H501.572L473.54 196.112H483.14L506.692 257.296ZM583.732 267.024C577.161 267.024 571.231 265.573 565.94 262.672C560.735 259.685 556.596 255.504 553.524 250.128C550.537 244.667 549.044 238.309 549.044 231.056C549.044 223.803 550.58 217.488 553.652 212.112C556.724 206.651 560.905 202.469 566.196 199.568C571.487 196.581 577.417 195.088 583.988 195.088C590.559 195.088 596.489 196.581 601.78 199.568C607.156 202.469 611.337 206.651 614.324 212.112C617.396 217.488 618.932 223.803 618.932 231.056C618.932 238.224 617.396 244.539 614.324 250C611.252 255.461 607.028 259.685 601.652 262.672C596.276 265.573 590.303 267.024 583.732 267.024ZM583.732 259.216C588.34 259.216 592.607 258.192 596.532 256.144C600.457 254.011 603.615 250.853 606.004 246.672C608.479 242.405 609.716 237.2 609.716 231.056C609.716 224.912 608.521 219.749 606.132 215.568C603.743 211.301 600.585 208.144 596.66 206.096C592.735 203.963 588.468 202.896 583.86 202.896C579.252 202.896 574.985 203.963 571.06 206.096C567.135 208.144 563.977 211.301 561.588 215.568C559.284 219.749 558.132 224.912 558.132 231.056C558.132 237.2 559.284 242.405 561.588 246.672C563.977 250.853 567.092 254.011 570.932 256.144C574.857 258.192 579.124 259.216 583.732 259.216ZM638.081 266.64C636.204 266.64 634.625 266 633.345 264.72C632.15 263.44 631.553 261.861 631.553 259.984C631.553 258.107 632.15 256.571 633.345 255.376C634.625 254.096 636.204 253.456 638.081 253.456C639.873 253.456 641.366 254.096 642.561 255.376C643.841 256.571 644.481 258.107 644.481 259.984C644.481 261.861 643.841 263.44 642.561 264.72C641.366 266 639.873 266.64 638.081 266.64ZM712.915 244.752H672.211L664.403 266H654.931L687.571 177.68H697.683L730.195 266H720.723L712.915 244.752ZM710.227 237.328L692.563 188.944L674.899 237.328H710.227ZM754.815 176.528V266H745.855V176.528H754.815Z" fill="black"/>
    <path d="M120.4 293.888V303.284H129.94V305.372H120.4V314.912H131.02V317H117.88V291.8H131.02V293.888H120.4ZM159.745 296.984C162.049 296.984 163.921 297.716 165.361 299.18C166.825 300.62 167.557 302.72 167.557 305.48V317H165.073V305.768C165.073 303.632 164.557 302 163.525 300.872C162.493 299.744 161.089 299.18 159.313 299.18C157.465 299.18 155.989 299.792 154.885 301.016C153.781 302.24 153.229 304.016 153.229 306.344V317H150.745V305.768C150.745 303.632 150.229 302 149.197 300.872C148.165 299.744 146.749 299.18 144.949 299.18C143.101 299.18 141.625 299.792 140.521 301.016C139.417 302.24 138.865 304.016 138.865 306.344V317H136.345V297.344H138.865V300.728C139.489 299.504 140.377 298.58 141.529 297.956C142.681 297.308 143.965 296.984 145.381 296.984C147.085 296.984 148.573 297.392 149.845 298.208C151.141 299.024 152.077 300.224 152.653 301.808C153.181 300.248 154.081 299.06 155.353 298.244C156.649 297.404 158.113 296.984 159.745 296.984ZM175.998 301.664C176.622 300.344 177.606 299.252 178.95 298.388C180.318 297.5 181.938 297.056 183.81 297.056C185.586 297.056 187.182 297.476 188.598 298.316C190.038 299.132 191.154 300.308 191.946 301.844C192.762 303.356 193.17 305.12 193.17 307.136C193.17 309.152 192.762 310.928 191.946 312.464C191.154 314 190.038 315.188 188.598 316.028C187.182 316.868 185.586 317.288 183.81 317.288C181.962 317.288 180.354 316.856 178.986 315.992C177.618 315.104 176.622 314 175.998 312.68V326.288H173.514V297.344H175.998V301.664ZM190.614 307.136C190.614 305.504 190.29 304.1 189.642 302.924C189.018 301.724 188.154 300.812 187.05 300.188C185.946 299.564 184.698 299.252 183.306 299.252C181.962 299.252 180.726 299.576 179.598 300.224C178.494 300.872 177.618 301.796 176.97 302.996C176.322 304.196 175.998 305.588 175.998 307.172C175.998 308.756 176.322 310.148 176.97 311.348C177.618 312.548 178.494 313.472 179.598 314.12C180.726 314.768 181.962 315.092 183.306 315.092C184.698 315.092 185.946 314.78 187.05 314.156C188.154 313.508 189.018 312.584 189.642 311.384C190.29 310.16 190.614 308.744 190.614 307.136ZM206.771 317.288C204.923 317.288 203.255 316.88 201.767 316.064C200.303 315.224 199.139 314.048 198.275 312.536C197.435 311 197.015 309.212 197.015 307.172C197.015 305.132 197.447 303.356 198.311 301.844C199.175 300.308 200.351 299.132 201.839 298.316C203.327 297.476 204.995 297.056 206.843 297.056C208.691 297.056 210.359 297.476 211.847 298.316C213.359 299.132 214.535 300.308 215.375 301.844C216.239 303.356 216.671 305.132 216.671 307.172C216.671 309.188 216.239 310.964 215.375 312.5C214.511 314.036 213.323 315.224 211.811 316.064C210.299 316.88 208.619 317.288 206.771 317.288ZM206.771 315.092C208.067 315.092 209.267 314.804 210.371 314.228C211.475 313.628 212.363 312.74 213.035 311.564C213.731 310.364 214.079 308.9 214.079 307.172C214.079 305.444 213.743 303.992 213.071 302.816C212.399 301.616 211.511 300.728 210.407 300.152C209.303 299.552 208.103 299.252 206.807 299.252C205.511 299.252 204.311 299.552 203.207 300.152C202.103 300.728 201.215 301.616 200.543 302.816C199.895 303.992 199.571 305.444 199.571 307.172C199.571 308.9 199.895 310.364 200.543 311.564C201.215 312.74 202.091 313.628 203.171 314.228C204.275 314.804 205.475 315.092 206.771 315.092ZM247.545 297.344L241.389 317H238.869L233.433 300.512L227.997 317H225.441L219.285 297.344H221.841L226.737 314.444L232.245 297.344H234.765L240.201 314.48L245.061 297.344H247.545ZM269.124 306.164C269.124 307.028 269.1 307.688 269.052 308.144H252.744C252.816 309.632 253.176 310.904 253.824 311.96C254.472 313.016 255.324 313.82 256.38 314.372C257.436 314.9 258.588 315.164 259.836 315.164C261.468 315.164 262.836 314.768 263.94 313.976C265.068 313.184 265.812 312.116 266.172 310.772H268.836C268.356 312.692 267.324 314.264 265.74 315.488C264.18 316.688 262.212 317.288 259.836 317.288C257.988 317.288 256.332 316.88 254.868 316.064C253.404 315.224 252.252 314.048 251.412 312.536C250.596 311 250.188 309.212 250.188 307.172C250.188 305.132 250.596 303.344 251.412 301.808C252.228 300.272 253.368 299.096 254.832 298.28C256.296 297.464 257.964 297.056 259.836 297.056C261.708 297.056 263.34 297.464 264.732 298.28C266.148 299.096 267.228 300.2 267.972 301.592C268.74 302.96 269.124 304.484 269.124 306.164ZM266.568 306.092C266.592 304.628 266.292 303.38 265.668 302.348C265.068 301.316 264.24 300.536 263.184 300.008C262.128 299.48 260.976 299.216 259.728 299.216C257.856 299.216 256.26 299.816 254.94 301.016C253.62 302.216 252.888 303.908 252.744 306.092H266.568ZM276.615 300.836C277.167 299.612 278.007 298.664 279.135 297.992C280.287 297.32 281.691 296.984 283.347 296.984V299.612H282.663C280.839 299.612 279.375 300.104 278.271 301.088C277.167 302.072 276.615 303.716 276.615 306.02V317H274.095V297.344H276.615V300.836ZM296.585 304.4C296.585 301.928 297.125 299.72 298.205 297.776C299.285 295.808 300.761 294.284 302.633 293.204C304.505 292.1 306.593 291.548 308.897 291.548C311.705 291.548 314.105 292.22 316.097 293.564C318.113 294.884 319.577 296.756 320.489 299.18H317.537C316.817 297.476 315.713 296.144 314.225 295.184C312.761 294.224 310.985 293.744 308.897 293.744C307.049 293.744 305.381 294.176 303.893 295.04C302.429 295.904 301.277 297.152 300.437 298.784C299.597 300.392 299.177 302.264 299.177 304.4C299.177 306.536 299.597 308.408 300.437 310.016C301.277 311.624 302.429 312.86 303.893 313.724C305.381 314.588 307.049 315.02 308.897 315.02C310.985 315.02 312.761 314.552 314.225 313.616C315.713 312.656 316.817 311.336 317.537 309.656H320.489C319.577 312.056 318.113 313.916 316.097 315.236C314.081 316.556 311.681 317.216 308.897 317.216C306.593 317.216 304.505 316.676 302.633 315.596C300.761 314.492 299.285 312.968 298.205 311.024C297.125 309.08 296.585 306.872 296.585 304.4ZM334.474 317.288C332.626 317.288 330.958 316.88 329.47 316.064C328.006 315.224 326.842 314.048 325.978 312.536C325.138 311 324.718 309.212 324.718 307.172C324.718 305.132 325.15 303.356 326.014 301.844C326.878 300.308 328.054 299.132 329.542 298.316C331.03 297.476 332.698 297.056 334.546 297.056C336.394 297.056 338.062 297.476 339.55 298.316C341.062 299.132 342.238 300.308 343.078 301.844C343.942 303.356 344.374 305.132 344.374 307.172C344.374 309.188 343.942 310.964 343.078 312.5C342.214 314.036 341.026 315.224 339.514 316.064C338.002 316.88 336.322 317.288 334.474 317.288ZM334.474 315.092C335.77 315.092 336.97 314.804 338.074 314.228C339.178 313.628 340.066 312.74 340.738 311.564C341.434 310.364 341.782 308.9 341.782 307.172C341.782 305.444 341.446 303.992 340.774 302.816C340.102 301.616 339.214 300.728 338.11 300.152C337.006 299.552 335.806 299.252 334.51 299.252C333.214 299.252 332.014 299.552 330.91 300.152C329.806 300.728 328.918 301.616 328.246 302.816C327.598 303.992 327.274 305.444 327.274 307.172C327.274 308.9 327.598 310.364 328.246 311.564C328.918 312.74 329.794 313.628 330.874 314.228C331.978 314.804 333.178 315.092 334.474 315.092ZM348.176 307.136C348.176 305.12 348.572 303.356 349.364 301.844C350.18 300.308 351.296 299.132 352.712 298.316C354.152 297.476 355.772 297.056 357.572 297.056C359.444 297.056 361.052 297.488 362.396 298.352C363.764 299.216 364.748 300.32 365.348 301.664V297.344H367.868V317H365.348V312.644C364.724 313.988 363.728 315.104 362.36 315.992C361.016 316.856 359.408 317.288 357.536 317.288C355.76 317.288 354.152 316.868 352.712 316.028C351.296 315.188 350.18 314 349.364 312.464C348.572 310.928 348.176 309.152 348.176 307.136ZM365.348 307.172C365.348 305.588 365.024 304.196 364.376 302.996C363.728 301.796 362.84 300.872 361.712 300.224C360.608 299.576 359.384 299.252 358.04 299.252C356.648 299.252 355.4 299.564 354.296 300.188C353.192 300.812 352.316 301.724 351.668 302.924C351.044 304.1 350.732 305.504 350.732 307.136C350.732 308.744 351.044 310.16 351.668 311.384C352.316 312.584 353.192 313.508 354.296 314.156C355.4 314.78 356.648 315.092 358.04 315.092C359.384 315.092 360.608 314.768 361.712 314.12C362.84 313.472 363.728 312.548 364.376 311.348C365.024 310.148 365.348 308.756 365.348 307.172ZM372.829 307.172C372.829 305.132 373.237 303.356 374.053 301.844C374.869 300.308 375.997 299.132 377.437 298.316C378.877 297.476 380.521 297.056 382.369 297.056C384.793 297.056 386.785 297.656 388.345 298.856C389.929 300.056 390.949 301.688 391.405 303.752H388.705C388.369 302.336 387.637 301.232 386.509 300.44C385.405 299.624 384.025 299.216 382.369 299.216C381.049 299.216 379.861 299.516 378.805 300.116C377.749 300.716 376.909 301.616 376.285 302.816C375.685 303.992 375.385 305.444 375.385 307.172C375.385 308.9 375.685 310.364 376.285 311.564C376.909 312.764 377.749 313.664 378.805 314.264C379.861 314.864 381.049 315.164 382.369 315.164C384.025 315.164 385.405 314.768 386.509 313.976C387.637 313.16 388.369 312.032 388.705 310.592H391.405C390.949 312.608 389.929 314.228 388.345 315.452C386.761 316.676 384.769 317.288 382.369 317.288C380.521 317.288 378.877 316.88 377.437 316.064C375.997 315.224 374.869 314.048 374.053 312.536C373.237 311 372.829 309.212 372.829 307.172ZM405.779 296.984C407.267 296.984 408.599 297.296 409.775 297.92C410.975 298.544 411.911 299.504 412.583 300.8C413.279 302.072 413.627 303.632 413.627 305.48V317H411.143V305.768C411.143 303.632 410.603 302 409.523 300.872C408.467 299.744 407.015 299.18 405.167 299.18C403.271 299.18 401.759 299.78 400.631 300.98C399.503 302.18 398.939 303.944 398.939 306.272V317H396.419V290.36H398.939V300.692C399.563 299.516 400.475 298.604 401.675 297.956C402.899 297.308 404.267 296.984 405.779 296.984ZM437.344 306.164C437.344 307.028 437.32 307.688 437.272 308.144H420.964C421.036 309.632 421.396 310.904 422.044 311.96C422.692 313.016 423.544 313.82 424.6 314.372C425.656 314.9 426.808 315.164 428.056 315.164C429.688 315.164 431.056 314.768 432.16 313.976C433.288 313.184 434.032 312.116 434.392 310.772H437.056C436.576 312.692 435.544 314.264 433.96 315.488C432.4 316.688 430.432 317.288 428.056 317.288C426.208 317.288 424.552 316.88 423.088 316.064C421.624 315.224 420.472 314.048 419.632 312.536C418.816 311 418.408 309.212 418.408 307.172C418.408 305.132 418.816 303.344 419.632 301.808C420.448 300.272 421.588 299.096 423.052 298.28C424.516 297.464 426.184 297.056 428.056 297.056C429.928 297.056 431.56 297.464 432.952 298.28C434.368 299.096 435.448 300.2 436.192 301.592C436.96 302.96 437.344 304.484 437.344 306.164ZM434.788 306.092C434.812 304.628 434.512 303.38 433.888 302.348C433.288 301.316 432.46 300.536 431.404 300.008C430.348 299.48 429.196 299.216 427.948 299.216C426.076 299.216 424.48 299.816 423.16 301.016C421.84 302.216 421.108 303.908 420.964 306.092H434.788ZM449.083 317.288C446.827 317.288 444.979 316.772 443.539 315.74C442.123 314.684 441.331 313.256 441.163 311.456H443.755C443.875 312.56 444.391 313.46 445.303 314.156C446.239 314.828 447.487 315.164 449.047 315.164C450.415 315.164 451.483 314.84 452.251 314.192C453.043 313.544 453.439 312.74 453.439 311.78C453.439 311.108 453.223 310.556 452.791 310.124C452.359 309.692 451.807 309.356 451.135 309.116C450.487 308.852 449.599 308.576 448.471 308.288C447.007 307.904 445.819 307.52 444.907 307.136C443.995 306.752 443.215 306.188 442.567 305.444C441.943 304.676 441.631 303.656 441.631 302.384C441.631 301.424 441.919 300.536 442.495 299.72C443.071 298.904 443.887 298.256 444.943 297.776C445.999 297.296 447.199 297.056 448.543 297.056C450.655 297.056 452.359 297.596 453.655 298.676C454.951 299.732 455.647 301.196 455.743 303.068H453.223C453.151 301.916 452.695 300.992 451.855 300.296C451.039 299.576 449.911 299.216 448.471 299.216C447.199 299.216 446.167 299.516 445.375 300.116C444.583 300.716 444.187 301.46 444.187 302.348C444.187 303.116 444.415 303.752 444.871 304.256C445.351 304.736 445.939 305.12 446.635 305.408C447.331 305.672 448.267 305.972 449.443 306.308C450.859 306.692 451.987 307.064 452.827 307.424C453.667 307.784 454.387 308.312 454.987 309.008C455.587 309.704 455.899 310.628 455.923 311.78C455.923 312.836 455.635 313.784 455.059 314.624C454.483 315.44 453.679 316.088 452.647 316.568C451.615 317.048 450.427 317.288 449.083 317.288ZM461.458 317.18C460.93 317.18 460.486 317 460.126 316.64C459.79 316.28 459.622 315.836 459.622 315.308C459.622 314.78 459.79 314.348 460.126 314.012C460.486 313.652 460.93 313.472 461.458 313.472C461.962 313.472 462.382 313.652 462.718 314.012C463.078 314.348 463.258 314.78 463.258 315.308C463.258 315.836 463.078 316.28 462.718 316.64C462.382 317 461.962 317.18 461.458 317.18ZM480.684 293.888V303.284H490.224V305.372H480.684V314.912H491.304V317H478.164V291.8H491.304V293.888H480.684ZM499.15 290.36V317H496.63V290.36H499.15ZM523 306.164C523 307.028 522.976 307.688 522.928 308.144H506.62C506.692 309.632 507.052 310.904 507.7 311.96C508.348 313.016 509.2 313.82 510.256 314.372C511.312 314.9 512.464 315.164 513.712 315.164C515.344 315.164 516.712 314.768 517.816 313.976C518.944 313.184 519.688 312.116 520.048 310.772H522.712C522.232 312.692 521.2 314.264 519.616 315.488C518.056 316.688 516.088 317.288 513.712 317.288C511.864 317.288 510.208 316.88 508.744 316.064C507.28 315.224 506.128 314.048 505.288 312.536C504.472 311 504.064 309.212 504.064 307.172C504.064 305.132 504.472 303.344 505.288 301.808C506.104 300.272 507.244 299.096 508.708 298.28C510.172 297.464 511.84 297.056 513.712 297.056C515.584 297.056 517.216 297.464 518.608 298.28C520.024 299.096 521.104 300.2 521.848 301.592C522.616 302.96 523 304.484 523 306.164ZM520.444 306.092C520.468 304.628 520.168 303.38 519.544 302.348C518.944 301.316 518.116 300.536 517.06 300.008C516.004 299.48 514.852 299.216 513.604 299.216C511.732 299.216 510.136 299.816 508.816 301.016C507.496 302.216 506.764 303.908 506.62 306.092H520.444ZM534.955 314.552L541.579 297.344H544.243L536.359 317H533.515L525.631 297.344H528.331L534.955 314.552ZM546.866 307.136C546.866 305.12 547.262 303.356 548.054 301.844C548.87 300.308 549.986 299.132 551.402 298.316C552.842 297.476 554.462 297.056 556.262 297.056C558.134 297.056 559.742 297.488 561.086 298.352C562.454 299.216 563.438 300.32 564.038 301.664V297.344H566.558V317H564.038V312.644C563.414 313.988 562.418 315.104 561.05 315.992C559.706 316.856 558.098 317.288 556.226 317.288C554.45 317.288 552.842 316.868 551.402 316.028C549.986 315.188 548.87 314 548.054 312.464C547.262 310.928 546.866 309.152 546.866 307.136ZM564.038 307.172C564.038 305.588 563.714 304.196 563.066 302.996C562.418 301.796 561.53 300.872 560.402 300.224C559.298 299.576 558.074 299.252 556.73 299.252C555.338 299.252 554.09 299.564 552.986 300.188C551.882 300.812 551.006 301.724 550.358 302.924C549.734 304.1 549.422 305.504 549.422 307.136C549.422 308.744 549.734 310.16 550.358 311.384C551.006 312.584 551.882 313.508 552.986 314.156C554.09 314.78 555.338 315.092 556.73 315.092C558.074 315.092 559.298 314.768 560.402 314.12C561.53 313.472 562.418 312.548 563.066 311.348C563.714 310.148 564.038 308.756 564.038 307.172ZM575.947 299.468V311.672C575.947 312.872 576.175 313.7 576.631 314.156C577.087 314.612 577.891 314.84 579.043 314.84H581.347V317H578.647C576.871 317 575.551 316.592 574.687 315.776C573.823 314.936 573.391 313.568 573.391 311.672V299.468H570.655V297.344H573.391V292.412H575.947V297.344H581.347V299.468H575.947ZM603.647 306.164C603.647 307.028 603.623 307.688 603.575 308.144H587.267C587.339 309.632 587.699 310.904 588.347 311.96C588.995 313.016 589.847 313.82 590.903 314.372C591.959 314.9 593.111 315.164 594.359 315.164C595.991 315.164 597.359 314.768 598.463 313.976C599.591 313.184 600.335 312.116 600.695 310.772H603.359C602.879 312.692 601.847 314.264 600.263 315.488C598.703 316.688 596.735 317.288 594.359 317.288C592.511 317.288 590.855 316.88 589.391 316.064C587.927 315.224 586.775 314.048 585.935 312.536C585.119 311 584.711 309.212 584.711 307.172C584.711 305.132 585.119 303.344 585.935 301.808C586.751 300.272 587.891 299.096 589.355 298.28C590.819 297.464 592.487 297.056 594.359 297.056C596.231 297.056 597.863 297.464 599.255 298.28C600.671 299.096 601.751 300.2 602.495 301.592C603.263 302.96 603.647 304.484 603.647 306.164ZM601.091 306.092C601.115 304.628 600.815 303.38 600.191 302.348C599.591 301.316 598.763 300.536 597.707 300.008C596.651 299.48 595.499 299.216 594.251 299.216C592.379 299.216 590.783 299.816 589.463 301.016C588.143 302.216 587.411 303.908 587.267 306.092H601.091ZM621.377 314.948H630.413V317H618.857V291.836H621.377V314.948ZM652.153 306.164C652.153 307.028 652.129 307.688 652.081 308.144H635.773C635.845 309.632 636.205 310.904 636.853 311.96C637.501 313.016 638.353 313.82 639.409 314.372C640.465 314.9 641.617 315.164 642.865 315.164C644.497 315.164 645.865 314.768 646.969 313.976C648.097 313.184 648.841 312.116 649.201 310.772H651.865C651.385 312.692 650.353 314.264 648.769 315.488C647.209 316.688 645.241 317.288 642.865 317.288C641.017 317.288 639.361 316.88 637.897 316.064C636.433 315.224 635.281 314.048 634.441 312.536C633.625 311 633.217 309.212 633.217 307.172C633.217 305.132 633.625 303.344 634.441 301.808C635.257 300.272 636.397 299.096 637.861 298.28C639.325 297.464 640.993 297.056 642.865 297.056C644.737 297.056 646.369 297.464 647.761 298.28C649.177 299.096 650.257 300.2 651.001 301.592C651.769 302.96 652.153 304.484 652.153 306.164ZM649.597 306.092C649.621 304.628 649.321 303.38 648.697 302.348C648.097 301.316 647.269 300.536 646.213 300.008C645.157 299.48 644.005 299.216 642.757 299.216C640.885 299.216 639.289 299.816 637.969 301.016C636.649 302.216 635.917 303.908 635.773 306.092H649.597ZM655.971 307.136C655.971 305.12 656.367 303.356 657.159 301.844C657.975 300.308 659.091 299.132 660.507 298.316C661.947 297.476 663.567 297.056 665.367 297.056C667.239 297.056 668.847 297.488 670.191 298.352C671.559 299.216 672.543 300.32 673.143 301.664V297.344H675.663V317H673.143V312.644C672.519 313.988 671.523 315.104 670.155 315.992C668.811 316.856 667.203 317.288 665.331 317.288C663.555 317.288 661.947 316.868 660.507 316.028C659.091 315.188 657.975 314 657.159 312.464C656.367 310.928 655.971 309.152 655.971 307.136ZM673.143 307.172C673.143 305.588 672.819 304.196 672.171 302.996C671.523 301.796 670.635 300.872 669.507 300.224C668.403 299.576 667.179 299.252 665.835 299.252C664.443 299.252 663.195 299.564 662.091 300.188C660.987 300.812 660.111 301.724 659.463 302.924C658.839 304.1 658.527 305.504 658.527 307.136C658.527 308.744 658.839 310.16 659.463 311.384C660.111 312.584 660.987 313.508 662.091 314.156C663.195 314.78 664.443 315.092 665.835 315.092C667.179 315.092 668.403 314.768 669.507 314.12C670.635 313.472 671.523 312.548 672.171 311.348C672.819 310.148 673.143 308.756 673.143 307.172ZM680.624 307.136C680.624 305.12 681.032 303.356 681.848 301.844C682.664 300.308 683.78 299.132 685.196 298.316C686.636 297.476 688.256 297.056 690.056 297.056C691.784 297.056 693.344 297.476 694.736 298.316C696.128 299.156 697.148 300.248 697.796 301.592V290.36H700.316V317H697.796V312.608C697.196 313.976 696.212 315.104 694.844 315.992C693.476 316.856 691.868 317.288 690.02 317.288C688.22 317.288 686.6 316.868 685.16 316.028C683.744 315.188 682.628 314 681.812 312.464C681.02 310.928 680.624 309.152 680.624 307.136ZM697.796 307.172C697.796 305.588 697.472 304.196 696.824 302.996C696.176 301.796 695.288 300.872 694.16 300.224C693.056 299.576 691.832 299.252 690.488 299.252C689.096 299.252 687.848 299.564 686.744 300.188C685.64 300.812 684.764 301.724 684.116 302.924C683.492 304.1 683.18 305.504 683.18 307.136C683.18 308.744 683.492 310.16 684.116 311.384C684.764 312.584 685.64 313.508 686.744 314.156C687.848 314.78 689.096 315.092 690.488 315.092C691.832 315.092 693.056 314.768 694.16 314.12C695.288 313.472 696.176 312.548 696.824 311.348C697.472 310.148 697.796 308.756 697.796 307.172ZM724.213 306.164C724.213 307.028 724.189 307.688 724.141 308.144H707.833C707.905 309.632 708.265 310.904 708.913 311.96C709.561 313.016 710.413 313.82 711.469 314.372C712.525 314.9 713.677 315.164 714.925 315.164C716.557 315.164 717.925 314.768 719.029 313.976C720.157 313.184 720.901 312.116 721.261 310.772H723.925C723.445 312.692 722.413 314.264 720.829 315.488C719.269 316.688 717.301 317.288 714.925 317.288C713.077 317.288 711.421 316.88 709.957 316.064C708.493 315.224 707.341 314.048 706.501 312.536C705.685 311 705.277 309.212 705.277 307.172C705.277 305.132 705.685 303.344 706.501 301.808C707.317 300.272 708.457 299.096 709.921 298.28C711.385 297.464 713.053 297.056 714.925 297.056C716.797 297.056 718.429 297.464 719.821 298.28C721.237 299.096 722.317 300.2 723.061 301.592C723.829 302.96 724.213 304.484 724.213 306.164ZM721.657 306.092C721.681 304.628 721.381 303.38 720.757 302.348C720.157 301.316 719.329 300.536 718.273 300.008C717.217 299.48 716.065 299.216 714.817 299.216C712.945 299.216 711.349 299.816 710.029 301.016C708.709 302.216 707.977 303.908 707.833 306.092H721.657ZM731.704 300.836C732.256 299.612 733.096 298.664 734.224 297.992C735.376 297.32 736.78 296.984 738.436 296.984V299.612H737.752C735.928 299.612 734.464 300.104 733.36 301.088C732.256 302.072 731.704 303.716 731.704 306.02V317H729.184V297.344H731.704V300.836ZM749.355 317.288C747.099 317.288 745.251 316.772 743.811 315.74C742.395 314.684 741.603 313.256 741.435 311.456H744.027C744.147 312.56 744.663 313.46 745.575 314.156C746.511 314.828 747.759 315.164 749.319 315.164C750.687 315.164 751.755 314.84 752.523 314.192C753.315 313.544 753.711 312.74 753.711 311.78C753.711 311.108 753.495 310.556 753.063 310.124C752.631 309.692 752.079 309.356 751.407 309.116C750.759 308.852 749.871 308.576 748.743 308.288C747.279 307.904 746.091 307.52 745.179 307.136C744.267 306.752 743.487 306.188 742.839 305.444C742.215 304.676 741.903 303.656 741.903 302.384C741.903 301.424 742.191 300.536 742.767 299.72C743.343 298.904 744.159 298.256 745.215 297.776C746.271 297.296 747.471 297.056 748.815 297.056C750.927 297.056 752.631 297.596 753.927 298.676C755.223 299.732 755.919 301.196 756.015 303.068H753.495C753.423 301.916 752.967 300.992 752.127 300.296C751.311 299.576 750.183 299.216 748.743 299.216C747.471 299.216 746.439 299.516 745.647 300.116C744.855 300.716 744.459 301.46 744.459 302.348C744.459 303.116 744.687 303.752 745.143 304.256C745.623 304.736 746.211 305.12 746.907 305.408C747.603 305.672 748.539 305.972 749.715 306.308C751.131 306.692 752.259 307.064 753.099 307.424C753.939 307.784 754.659 308.312 755.259 309.008C755.859 309.704 756.171 310.628 756.195 311.78C756.195 312.836 755.907 313.784 755.331 314.624C754.755 315.44 753.951 316.088 752.919 316.568C751.887 317.048 750.699 317.288 749.355 317.288ZM761.73 317.18C761.202 317.18 760.758 317 760.398 316.64C760.062 316.28 759.894 315.836 759.894 315.308C759.894 314.78 760.062 314.348 760.398 314.012C760.758 313.652 761.202 313.472 761.73 313.472C762.234 313.472 762.654 313.652 762.99 314.012C763.35 314.348 763.53 314.78 763.53 315.308C763.53 315.836 763.35 316.28 762.99 316.64C762.654 317 762.234 317.18 761.73 317.18Z" fill="black"/>
</svg>
