<svg width="904" height="509" viewBox="0 0 904 509" fill="none" xmlns="http://www.w3.org/2000/svg">
    <rect width="904" height="509" fill="white"/>
    <rect x="202.667" y="260" width="14.2222" height="72" rx="7.11111" fill="#1E1E1E"/>
    <rect x="149.333" y="260" width="14.2222" height="72" rx="7.11111" fill="#1E1E1E"/>
    <rect x="229.333" y="236" width="14.2222" height="96" rx="7.11111" fill="#1E1E1E"/>
    <rect x="122.667" y="236" width="14.2222" height="96" rx="7.11111" fill="#1E1E1E"/>
    <rect x="256" y="204" width="14.2222" height="128" rx="7.11111" fill="#1E1E1E"/>
    <rect x="96" y="204" width="14.2222" height="128" rx="7.11111" fill="#1E1E1E"/>
    <rect x="176" y="284" width="14.2222" height="48" rx="7.11111" fill="#1E1E1E"/>
    <path d="M353.472 290.472C353.472 293.544 353.387 295.891 353.216 297.512H295.232C295.488 302.803 296.768 307.325 299.072 311.08C301.376 314.835 304.405 317.693 308.16 319.656C311.915 321.533 316.011 322.472 320.448 322.472C326.251 322.472 331.115 321.064 335.04 318.248C339.051 315.432 341.696 311.635 342.976 306.856H352.448C350.741 313.683 347.072 319.272 341.44 323.624C335.893 327.891 328.896 330.024 320.448 330.024C313.877 330.024 307.989 328.573 302.784 325.672C297.579 322.685 293.483 318.504 290.496 313.128C287.595 307.667 286.144 301.309 286.144 294.056C286.144 286.803 287.595 280.445 290.496 274.984C293.397 269.523 297.451 265.341 302.656 262.44C307.861 259.539 313.792 258.088 320.448 258.088C327.104 258.088 332.907 259.539 337.856 262.44C342.891 265.341 346.731 269.267 349.376 274.216C352.107 279.08 353.472 284.499 353.472 290.472ZM344.384 290.216C344.469 285.011 343.403 280.573 341.184 276.904C339.051 273.235 336.107 270.461 332.352 268.584C328.597 266.707 324.501 265.768 320.064 265.768C313.408 265.768 307.733 267.901 303.04 272.168C298.347 276.435 295.744 282.451 295.232 290.216H344.384ZM403.913 257.832C412.276 257.832 419.102 260.435 424.393 265.64C429.684 270.76 432.329 278.227 432.329 288.04V329H423.497V289.064C423.497 281.469 421.577 275.667 417.737 271.656C413.982 267.645 408.82 265.64 402.249 265.64C395.508 265.64 390.132 267.773 386.121 272.04C382.11 276.307 380.105 282.579 380.105 290.856V329H371.145V259.112H380.105V271.016C382.324 266.749 385.524 263.507 389.705 261.288C393.886 258.984 398.622 257.832 403.913 257.832ZM465.073 266.664V310.056C465.073 314.323 465.884 317.267 467.505 318.888C469.126 320.509 471.985 321.32 476.081 321.32H484.273V329H474.673C468.358 329 463.665 327.549 460.593 324.648C457.521 321.661 455.985 316.797 455.985 310.056V266.664H446.257V259.112H455.985V241.576H465.073V259.112H484.273V266.664H465.073ZM504.81 245.928C503.018 245.928 501.482 245.288 500.202 244.008C498.922 242.728 498.282 241.149 498.282 239.272C498.282 237.395 498.922 235.859 500.202 234.664C501.482 233.384 503.018 232.744 504.81 232.744C506.602 232.744 508.138 233.384 509.418 234.664C510.698 235.859 511.338 237.395 511.338 239.272C511.338 241.149 510.698 242.728 509.418 244.008C508.138 245.288 506.602 245.928 504.81 245.928ZM509.29 259.112V329H500.33V259.112H509.29ZM555.692 320.296L579.244 259.112H588.716L560.684 329H550.572L522.54 259.112H532.14L555.692 320.296ZM632.732 330.024C626.161 330.024 620.231 328.573 614.94 325.672C609.735 322.685 605.596 318.504 602.524 313.128C599.537 307.667 598.044 301.309 598.044 294.056C598.044 286.803 599.58 280.488 602.652 275.112C605.724 269.651 609.905 265.469 615.196 262.568C620.487 259.581 626.417 258.088 632.988 258.088C639.559 258.088 645.489 259.581 650.78 262.568C656.156 265.469 660.337 269.651 663.324 275.112C666.396 280.488 667.932 286.803 667.932 294.056C667.932 301.224 666.396 307.539 663.324 313C660.252 318.461 656.028 322.685 650.652 325.672C645.276 328.573 639.303 330.024 632.732 330.024ZM632.732 322.216C637.34 322.216 641.607 321.192 645.532 319.144C649.457 317.011 652.615 313.853 655.004 309.672C657.479 305.405 658.716 300.2 658.716 294.056C658.716 287.912 657.521 282.749 655.132 278.568C652.743 274.301 649.585 271.144 645.66 269.096C641.735 266.963 637.468 265.896 632.86 265.896C628.252 265.896 623.985 266.963 620.06 269.096C616.135 271.144 612.977 274.301 610.588 278.568C608.284 282.749 607.132 287.912 607.132 294.056C607.132 300.2 608.284 305.405 610.588 309.672C612.977 313.853 616.092 317.011 619.932 319.144C623.857 321.192 628.124 322.216 632.732 322.216ZM687.081 329.64C685.204 329.64 683.625 329 682.345 327.72C681.15 326.44 680.553 324.861 680.553 322.984C680.553 321.107 681.15 319.571 682.345 318.376C683.625 317.096 685.204 316.456 687.081 316.456C688.873 316.456 690.366 317.096 691.561 318.376C692.841 319.571 693.481 321.107 693.481 322.984C693.481 324.861 692.841 326.44 691.561 327.72C690.366 329 688.873 329.64 687.081 329.64ZM761.915 307.752H721.211L713.403 329H703.931L736.571 240.68H746.683L779.195 329H769.723L761.915 307.752ZM759.227 300.328L741.563 251.944L723.899 300.328H759.227ZM803.815 239.528V329H794.855V239.528H803.815Z" fill="#1E1E1E"/>
    <path d="M169.4 356.888V366.284H178.94V368.372H169.4V377.912H180.02V380H166.88V354.8H180.02V356.888H169.4ZM208.745 359.984C211.049 359.984 212.921 360.716 214.361 362.18C215.825 363.62 216.557 365.72 216.557 368.48V380H214.073V368.768C214.073 366.632 213.557 365 212.525 363.872C211.493 362.744 210.089 362.18 208.313 362.18C206.465 362.18 204.989 362.792 203.885 364.016C202.781 365.24 202.229 367.016 202.229 369.344V380H199.745V368.768C199.745 366.632 199.229 365 198.197 363.872C197.165 362.744 195.749 362.18 193.949 362.18C192.101 362.18 190.625 362.792 189.521 364.016C188.417 365.24 187.865 367.016 187.865 369.344V380H185.345V360.344H187.865V363.728C188.489 362.504 189.377 361.58 190.529 360.956C191.681 360.308 192.965 359.984 194.381 359.984C196.085 359.984 197.573 360.392 198.845 361.208C200.141 362.024 201.077 363.224 201.653 364.808C202.181 363.248 203.081 362.06 204.353 361.244C205.649 360.404 207.113 359.984 208.745 359.984ZM224.998 364.664C225.622 363.344 226.606 362.252 227.95 361.388C229.318 360.5 230.938 360.056 232.81 360.056C234.586 360.056 236.182 360.476 237.598 361.316C239.038 362.132 240.154 363.308 240.946 364.844C241.762 366.356 242.17 368.12 242.17 370.136C242.17 372.152 241.762 373.928 240.946 375.464C240.154 377 239.038 378.188 237.598 379.028C236.182 379.868 234.586 380.288 232.81 380.288C230.962 380.288 229.354 379.856 227.986 378.992C226.618 378.104 225.622 377 224.998 375.68V389.288H222.514V360.344H224.998V364.664ZM239.614 370.136C239.614 368.504 239.29 367.1 238.642 365.924C238.018 364.724 237.154 363.812 236.05 363.188C234.946 362.564 233.698 362.252 232.306 362.252C230.962 362.252 229.726 362.576 228.598 363.224C227.494 363.872 226.618 364.796 225.97 365.996C225.322 367.196 224.998 368.588 224.998 370.172C224.998 371.756 225.322 373.148 225.97 374.348C226.618 375.548 227.494 376.472 228.598 377.12C229.726 377.768 230.962 378.092 232.306 378.092C233.698 378.092 234.946 377.78 236.05 377.156C237.154 376.508 238.018 375.584 238.642 374.384C239.29 373.16 239.614 371.744 239.614 370.136ZM255.771 380.288C253.923 380.288 252.255 379.88 250.767 379.064C249.303 378.224 248.139 377.048 247.275 375.536C246.435 374 246.015 372.212 246.015 370.172C246.015 368.132 246.447 366.356 247.311 364.844C248.175 363.308 249.351 362.132 250.839 361.316C252.327 360.476 253.995 360.056 255.843 360.056C257.691 360.056 259.359 360.476 260.847 361.316C262.359 362.132 263.535 363.308 264.375 364.844C265.239 366.356 265.671 368.132 265.671 370.172C265.671 372.188 265.239 373.964 264.375 375.5C263.511 377.036 262.323 378.224 260.811 379.064C259.299 379.88 257.619 380.288 255.771 380.288ZM255.771 378.092C257.067 378.092 258.267 377.804 259.371 377.228C260.475 376.628 261.363 375.74 262.035 374.564C262.731 373.364 263.079 371.9 263.079 370.172C263.079 368.444 262.743 366.992 262.071 365.816C261.399 364.616 260.511 363.728 259.407 363.152C258.303 362.552 257.103 362.252 255.807 362.252C254.511 362.252 253.311 362.552 252.207 363.152C251.103 363.728 250.215 364.616 249.543 365.816C248.895 366.992 248.571 368.444 248.571 370.172C248.571 371.9 248.895 373.364 249.543 374.564C250.215 375.74 251.091 376.628 252.171 377.228C253.275 377.804 254.475 378.092 255.771 378.092ZM296.545 360.344L290.389 380H287.869L282.433 363.512L276.997 380H274.441L268.285 360.344H270.841L275.737 377.444L281.245 360.344H283.765L289.201 377.48L294.061 360.344H296.545ZM318.124 369.164C318.124 370.028 318.1 370.688 318.052 371.144H301.744C301.816 372.632 302.176 373.904 302.824 374.96C303.472 376.016 304.324 376.82 305.38 377.372C306.436 377.9 307.588 378.164 308.836 378.164C310.468 378.164 311.836 377.768 312.94 376.976C314.068 376.184 314.812 375.116 315.172 373.772H317.836C317.356 375.692 316.324 377.264 314.74 378.488C313.18 379.688 311.212 380.288 308.836 380.288C306.988 380.288 305.332 379.88 303.868 379.064C302.404 378.224 301.252 377.048 300.412 375.536C299.596 374 299.188 372.212 299.188 370.172C299.188 368.132 299.596 366.344 300.412 364.808C301.228 363.272 302.368 362.096 303.832 361.28C305.296 360.464 306.964 360.056 308.836 360.056C310.708 360.056 312.34 360.464 313.732 361.28C315.148 362.096 316.228 363.2 316.972 364.592C317.74 365.96 318.124 367.484 318.124 369.164ZM315.568 369.092C315.592 367.628 315.292 366.38 314.668 365.348C314.068 364.316 313.24 363.536 312.184 363.008C311.128 362.48 309.976 362.216 308.728 362.216C306.856 362.216 305.26 362.816 303.94 364.016C302.62 365.216 301.888 366.908 301.744 369.092H315.568ZM325.615 363.836C326.167 362.612 327.007 361.664 328.135 360.992C329.287 360.32 330.691 359.984 332.347 359.984V362.612H331.663C329.839 362.612 328.375 363.104 327.271 364.088C326.167 365.072 325.615 366.716 325.615 369.02V380H323.095V360.344H325.615V363.836ZM345.585 367.4C345.585 364.928 346.125 362.72 347.205 360.776C348.285 358.808 349.761 357.284 351.633 356.204C353.505 355.1 355.593 354.548 357.897 354.548C360.705 354.548 363.105 355.22 365.097 356.564C367.113 357.884 368.577 359.756 369.489 362.18H366.537C365.817 360.476 364.713 359.144 363.225 358.184C361.761 357.224 359.985 356.744 357.897 356.744C356.049 356.744 354.381 357.176 352.893 358.04C351.429 358.904 350.277 360.152 349.437 361.784C348.597 363.392 348.177 365.264 348.177 367.4C348.177 369.536 348.597 371.408 349.437 373.016C350.277 374.624 351.429 375.86 352.893 376.724C354.381 377.588 356.049 378.02 357.897 378.02C359.985 378.02 361.761 377.552 363.225 376.616C364.713 375.656 365.817 374.336 366.537 372.656H369.489C368.577 375.056 367.113 376.916 365.097 378.236C363.081 379.556 360.681 380.216 357.897 380.216C355.593 380.216 353.505 379.676 351.633 378.596C349.761 377.492 348.285 375.968 347.205 374.024C346.125 372.08 345.585 369.872 345.585 367.4ZM383.474 380.288C381.626 380.288 379.958 379.88 378.47 379.064C377.006 378.224 375.842 377.048 374.978 375.536C374.138 374 373.718 372.212 373.718 370.172C373.718 368.132 374.15 366.356 375.014 364.844C375.878 363.308 377.054 362.132 378.542 361.316C380.03 360.476 381.698 360.056 383.546 360.056C385.394 360.056 387.062 360.476 388.55 361.316C390.062 362.132 391.238 363.308 392.078 364.844C392.942 366.356 393.374 368.132 393.374 370.172C393.374 372.188 392.942 373.964 392.078 375.5C391.214 377.036 390.026 378.224 388.514 379.064C387.002 379.88 385.322 380.288 383.474 380.288ZM383.474 378.092C384.77 378.092 385.97 377.804 387.074 377.228C388.178 376.628 389.066 375.74 389.738 374.564C390.434 373.364 390.782 371.9 390.782 370.172C390.782 368.444 390.446 366.992 389.774 365.816C389.102 364.616 388.214 363.728 387.11 363.152C386.006 362.552 384.806 362.252 383.51 362.252C382.214 362.252 381.014 362.552 379.91 363.152C378.806 363.728 377.918 364.616 377.246 365.816C376.598 366.992 376.274 368.444 376.274 370.172C376.274 371.9 376.598 373.364 377.246 374.564C377.918 375.74 378.794 376.628 379.874 377.228C380.978 377.804 382.178 378.092 383.474 378.092ZM397.176 370.136C397.176 368.12 397.572 366.356 398.364 364.844C399.18 363.308 400.296 362.132 401.712 361.316C403.152 360.476 404.772 360.056 406.572 360.056C408.444 360.056 410.052 360.488 411.396 361.352C412.764 362.216 413.748 363.32 414.348 364.664V360.344H416.868V380H414.348V375.644C413.724 376.988 412.728 378.104 411.36 378.992C410.016 379.856 408.408 380.288 406.536 380.288C404.76 380.288 403.152 379.868 401.712 379.028C400.296 378.188 399.18 377 398.364 375.464C397.572 373.928 397.176 372.152 397.176 370.136ZM414.348 370.172C414.348 368.588 414.024 367.196 413.376 365.996C412.728 364.796 411.84 363.872 410.712 363.224C409.608 362.576 408.384 362.252 407.04 362.252C405.648 362.252 404.4 362.564 403.296 363.188C402.192 363.812 401.316 364.724 400.668 365.924C400.044 367.1 399.732 368.504 399.732 370.136C399.732 371.744 400.044 373.16 400.668 374.384C401.316 375.584 402.192 376.508 403.296 377.156C404.4 377.78 405.648 378.092 407.04 378.092C408.384 378.092 409.608 377.768 410.712 377.12C411.84 376.472 412.728 375.548 413.376 374.348C414.024 373.148 414.348 371.756 414.348 370.172ZM421.829 370.172C421.829 368.132 422.237 366.356 423.053 364.844C423.869 363.308 424.997 362.132 426.437 361.316C427.877 360.476 429.521 360.056 431.369 360.056C433.793 360.056 435.785 360.656 437.345 361.856C438.929 363.056 439.949 364.688 440.405 366.752H437.705C437.369 365.336 436.637 364.232 435.509 363.44C434.405 362.624 433.025 362.216 431.369 362.216C430.049 362.216 428.861 362.516 427.805 363.116C426.749 363.716 425.909 364.616 425.285 365.816C424.685 366.992 424.385 368.444 424.385 370.172C424.385 371.9 424.685 373.364 425.285 374.564C425.909 375.764 426.749 376.664 427.805 377.264C428.861 377.864 430.049 378.164 431.369 378.164C433.025 378.164 434.405 377.768 435.509 376.976C436.637 376.16 437.369 375.032 437.705 373.592H440.405C439.949 375.608 438.929 377.228 437.345 378.452C435.761 379.676 433.769 380.288 431.369 380.288C429.521 380.288 427.877 379.88 426.437 379.064C424.997 378.224 423.869 377.048 423.053 375.536C422.237 374 421.829 372.212 421.829 370.172ZM454.779 359.984C456.267 359.984 457.599 360.296 458.775 360.92C459.975 361.544 460.911 362.504 461.583 363.8C462.279 365.072 462.627 366.632 462.627 368.48V380H460.143V368.768C460.143 366.632 459.603 365 458.523 363.872C457.467 362.744 456.015 362.18 454.167 362.18C452.271 362.18 450.759 362.78 449.631 363.98C448.503 365.18 447.939 366.944 447.939 369.272V380H445.419V353.36H447.939V363.692C448.563 362.516 449.475 361.604 450.675 360.956C451.899 360.308 453.267 359.984 454.779 359.984ZM486.344 369.164C486.344 370.028 486.32 370.688 486.272 371.144H469.964C470.036 372.632 470.396 373.904 471.044 374.96C471.692 376.016 472.544 376.82 473.6 377.372C474.656 377.9 475.808 378.164 477.056 378.164C478.688 378.164 480.056 377.768 481.16 376.976C482.288 376.184 483.032 375.116 483.392 373.772H486.056C485.576 375.692 484.544 377.264 482.96 378.488C481.4 379.688 479.432 380.288 477.056 380.288C475.208 380.288 473.552 379.88 472.088 379.064C470.624 378.224 469.472 377.048 468.632 375.536C467.816 374 467.408 372.212 467.408 370.172C467.408 368.132 467.816 366.344 468.632 364.808C469.448 363.272 470.588 362.096 472.052 361.28C473.516 360.464 475.184 360.056 477.056 360.056C478.928 360.056 480.56 360.464 481.952 361.28C483.368 362.096 484.448 363.2 485.192 364.592C485.96 365.96 486.344 367.484 486.344 369.164ZM483.788 369.092C483.812 367.628 483.512 366.38 482.888 365.348C482.288 364.316 481.46 363.536 480.404 363.008C479.348 362.48 478.196 362.216 476.948 362.216C475.076 362.216 473.48 362.816 472.16 364.016C470.84 365.216 470.108 366.908 469.964 369.092H483.788ZM498.083 380.288C495.827 380.288 493.979 379.772 492.539 378.74C491.123 377.684 490.331 376.256 490.163 374.456H492.755C492.875 375.56 493.391 376.46 494.303 377.156C495.239 377.828 496.487 378.164 498.047 378.164C499.415 378.164 500.483 377.84 501.251 377.192C502.043 376.544 502.439 375.74 502.439 374.78C502.439 374.108 502.223 373.556 501.791 373.124C501.359 372.692 500.807 372.356 500.135 372.116C499.487 371.852 498.599 371.576 497.471 371.288C496.007 370.904 494.819 370.52 493.907 370.136C492.995 369.752 492.215 369.188 491.567 368.444C490.943 367.676 490.631 366.656 490.631 365.384C490.631 364.424 490.919 363.536 491.495 362.72C492.071 361.904 492.887 361.256 493.943 360.776C494.999 360.296 496.199 360.056 497.543 360.056C499.655 360.056 501.359 360.596 502.655 361.676C503.951 362.732 504.647 364.196 504.743 366.068H502.223C502.151 364.916 501.695 363.992 500.855 363.296C500.039 362.576 498.911 362.216 497.471 362.216C496.199 362.216 495.167 362.516 494.375 363.116C493.583 363.716 493.187 364.46 493.187 365.348C493.187 366.116 493.415 366.752 493.871 367.256C494.351 367.736 494.939 368.12 495.635 368.408C496.331 368.672 497.267 368.972 498.443 369.308C499.859 369.692 500.987 370.064 501.827 370.424C502.667 370.784 503.387 371.312 503.987 372.008C504.587 372.704 504.899 373.628 504.923 374.78C504.923 375.836 504.635 376.784 504.059 377.624C503.483 378.44 502.679 379.088 501.647 379.568C500.615 380.048 499.427 380.288 498.083 380.288ZM510.458 380.18C509.93 380.18 509.486 380 509.126 379.64C508.79 379.28 508.622 378.836 508.622 378.308C508.622 377.78 508.79 377.348 509.126 377.012C509.486 376.652 509.93 376.472 510.458 376.472C510.962 376.472 511.382 376.652 511.718 377.012C512.078 377.348 512.258 377.78 512.258 378.308C512.258 378.836 512.078 379.28 511.718 379.64C511.382 380 510.962 380.18 510.458 380.18ZM529.684 356.888V366.284H539.224V368.372H529.684V377.912H540.304V380H527.164V354.8H540.304V356.888H529.684ZM548.15 353.36V380H545.63V353.36H548.15ZM572 369.164C572 370.028 571.976 370.688 571.928 371.144H555.62C555.692 372.632 556.052 373.904 556.7 374.96C557.348 376.016 558.2 376.82 559.256 377.372C560.312 377.9 561.464 378.164 562.712 378.164C564.344 378.164 565.712 377.768 566.816 376.976C567.944 376.184 568.688 375.116 569.048 373.772H571.712C571.232 375.692 570.2 377.264 568.616 378.488C567.056 379.688 565.088 380.288 562.712 380.288C560.864 380.288 559.208 379.88 557.744 379.064C556.28 378.224 555.128 377.048 554.288 375.536C553.472 374 553.064 372.212 553.064 370.172C553.064 368.132 553.472 366.344 554.288 364.808C555.104 363.272 556.244 362.096 557.708 361.28C559.172 360.464 560.84 360.056 562.712 360.056C564.584 360.056 566.216 360.464 567.608 361.28C569.024 362.096 570.104 363.2 570.848 364.592C571.616 365.96 572 367.484 572 369.164ZM569.444 369.092C569.468 367.628 569.168 366.38 568.544 365.348C567.944 364.316 567.116 363.536 566.06 363.008C565.004 362.48 563.852 362.216 562.604 362.216C560.732 362.216 559.136 362.816 557.816 364.016C556.496 365.216 555.764 366.908 555.62 369.092H569.444ZM583.955 377.552L590.579 360.344H593.243L585.359 380H582.515L574.631 360.344H577.331L583.955 377.552ZM595.866 370.136C595.866 368.12 596.262 366.356 597.054 364.844C597.87 363.308 598.986 362.132 600.402 361.316C601.842 360.476 603.462 360.056 605.262 360.056C607.134 360.056 608.742 360.488 610.086 361.352C611.454 362.216 612.438 363.32 613.038 364.664V360.344H615.558V380H613.038V375.644C612.414 376.988 611.418 378.104 610.05 378.992C608.706 379.856 607.098 380.288 605.226 380.288C603.45 380.288 601.842 379.868 600.402 379.028C598.986 378.188 597.87 377 597.054 375.464C596.262 373.928 595.866 372.152 595.866 370.136ZM613.038 370.172C613.038 368.588 612.714 367.196 612.066 365.996C611.418 364.796 610.53 363.872 609.402 363.224C608.298 362.576 607.074 362.252 605.73 362.252C604.338 362.252 603.09 362.564 601.986 363.188C600.882 363.812 600.006 364.724 599.358 365.924C598.734 367.1 598.422 368.504 598.422 370.136C598.422 371.744 598.734 373.16 599.358 374.384C600.006 375.584 600.882 376.508 601.986 377.156C603.09 377.78 604.338 378.092 605.73 378.092C607.074 378.092 608.298 377.768 609.402 377.12C610.53 376.472 611.418 375.548 612.066 374.348C612.714 373.148 613.038 371.756 613.038 370.172ZM624.947 362.468V374.672C624.947 375.872 625.175 376.7 625.631 377.156C626.087 377.612 626.891 377.84 628.043 377.84H630.347V380H627.647C625.871 380 624.551 379.592 623.687 378.776C622.823 377.936 622.391 376.568 622.391 374.672V362.468H619.655V360.344H622.391V355.412H624.947V360.344H630.347V362.468H624.947ZM652.647 369.164C652.647 370.028 652.623 370.688 652.575 371.144H636.267C636.339 372.632 636.699 373.904 637.347 374.96C637.995 376.016 638.847 376.82 639.903 377.372C640.959 377.9 642.111 378.164 643.359 378.164C644.991 378.164 646.359 377.768 647.463 376.976C648.591 376.184 649.335 375.116 649.695 373.772H652.359C651.879 375.692 650.847 377.264 649.263 378.488C647.703 379.688 645.735 380.288 643.359 380.288C641.511 380.288 639.855 379.88 638.391 379.064C636.927 378.224 635.775 377.048 634.935 375.536C634.119 374 633.711 372.212 633.711 370.172C633.711 368.132 634.119 366.344 634.935 364.808C635.751 363.272 636.891 362.096 638.355 361.28C639.819 360.464 641.487 360.056 643.359 360.056C645.231 360.056 646.863 360.464 648.255 361.28C649.671 362.096 650.751 363.2 651.495 364.592C652.263 365.96 652.647 367.484 652.647 369.164ZM650.091 369.092C650.115 367.628 649.815 366.38 649.191 365.348C648.591 364.316 647.763 363.536 646.707 363.008C645.651 362.48 644.499 362.216 643.251 362.216C641.379 362.216 639.783 362.816 638.463 364.016C637.143 365.216 636.411 366.908 636.267 369.092H650.091ZM670.377 377.948H679.413V380H667.857V354.836H670.377V377.948ZM701.153 369.164C701.153 370.028 701.129 370.688 701.081 371.144H684.773C684.845 372.632 685.205 373.904 685.853 374.96C686.501 376.016 687.353 376.82 688.409 377.372C689.465 377.9 690.617 378.164 691.865 378.164C693.497 378.164 694.865 377.768 695.969 376.976C697.097 376.184 697.841 375.116 698.201 373.772H700.865C700.385 375.692 699.353 377.264 697.769 378.488C696.209 379.688 694.241 380.288 691.865 380.288C690.017 380.288 688.361 379.88 686.897 379.064C685.433 378.224 684.281 377.048 683.441 375.536C682.625 374 682.217 372.212 682.217 370.172C682.217 368.132 682.625 366.344 683.441 364.808C684.257 363.272 685.397 362.096 686.861 361.28C688.325 360.464 689.993 360.056 691.865 360.056C693.737 360.056 695.369 360.464 696.761 361.28C698.177 362.096 699.257 363.2 700.001 364.592C700.769 365.96 701.153 367.484 701.153 369.164ZM698.597 369.092C698.621 367.628 698.321 366.38 697.697 365.348C697.097 364.316 696.269 363.536 695.213 363.008C694.157 362.48 693.005 362.216 691.757 362.216C689.885 362.216 688.289 362.816 686.969 364.016C685.649 365.216 684.917 366.908 684.773 369.092H698.597ZM704.971 370.136C704.971 368.12 705.367 366.356 706.159 364.844C706.975 363.308 708.091 362.132 709.507 361.316C710.947 360.476 712.567 360.056 714.367 360.056C716.239 360.056 717.847 360.488 719.191 361.352C720.559 362.216 721.543 363.32 722.143 364.664V360.344H724.663V380H722.143V375.644C721.519 376.988 720.523 378.104 719.155 378.992C717.811 379.856 716.203 380.288 714.331 380.288C712.555 380.288 710.947 379.868 709.507 379.028C708.091 378.188 706.975 377 706.159 375.464C705.367 373.928 704.971 372.152 704.971 370.136ZM722.143 370.172C722.143 368.588 721.819 367.196 721.171 365.996C720.523 364.796 719.635 363.872 718.507 363.224C717.403 362.576 716.179 362.252 714.835 362.252C713.443 362.252 712.195 362.564 711.091 363.188C709.987 363.812 709.111 364.724 708.463 365.924C707.839 367.1 707.527 368.504 707.527 370.136C707.527 371.744 707.839 373.16 708.463 374.384C709.111 375.584 709.987 376.508 711.091 377.156C712.195 377.78 713.443 378.092 714.835 378.092C716.179 378.092 717.403 377.768 718.507 377.12C719.635 376.472 720.523 375.548 721.171 374.348C721.819 373.148 722.143 371.756 722.143 370.172ZM729.624 370.136C729.624 368.12 730.032 366.356 730.848 364.844C731.664 363.308 732.78 362.132 734.196 361.316C735.636 360.476 737.256 360.056 739.056 360.056C740.784 360.056 742.344 360.476 743.736 361.316C745.128 362.156 746.148 363.248 746.796 364.592V353.36H749.316V380H746.796V375.608C746.196 376.976 745.212 378.104 743.844 378.992C742.476 379.856 740.868 380.288 739.02 380.288C737.22 380.288 735.6 379.868 734.16 379.028C732.744 378.188 731.628 377 730.812 375.464C730.02 373.928 729.624 372.152 729.624 370.136ZM746.796 370.172C746.796 368.588 746.472 367.196 745.824 365.996C745.176 364.796 744.288 363.872 743.16 363.224C742.056 362.576 740.832 362.252 739.488 362.252C738.096 362.252 736.848 362.564 735.744 363.188C734.64 363.812 733.764 364.724 733.116 365.924C732.492 367.1 732.18 368.504 732.18 370.136C732.18 371.744 732.492 373.16 733.116 374.384C733.764 375.584 734.64 376.508 735.744 377.156C736.848 377.78 738.096 378.092 739.488 378.092C740.832 378.092 742.056 377.768 743.16 377.12C744.288 376.472 745.176 375.548 745.824 374.348C746.472 373.148 746.796 371.756 746.796 370.172ZM773.213 369.164C773.213 370.028 773.189 370.688 773.141 371.144H756.833C756.905 372.632 757.265 373.904 757.913 374.96C758.561 376.016 759.413 376.82 760.469 377.372C761.525 377.9 762.677 378.164 763.925 378.164C765.557 378.164 766.925 377.768 768.029 376.976C769.157 376.184 769.901 375.116 770.261 373.772H772.925C772.445 375.692 771.413 377.264 769.829 378.488C768.269 379.688 766.301 380.288 763.925 380.288C762.077 380.288 760.421 379.88 758.957 379.064C757.493 378.224 756.341 377.048 755.501 375.536C754.685 374 754.277 372.212 754.277 370.172C754.277 368.132 754.685 366.344 755.501 364.808C756.317 363.272 757.457 362.096 758.921 361.28C760.385 360.464 762.053 360.056 763.925 360.056C765.797 360.056 767.429 360.464 768.821 361.28C770.237 362.096 771.317 363.2 772.061 364.592C772.829 365.96 773.213 367.484 773.213 369.164ZM770.657 369.092C770.681 367.628 770.381 366.38 769.757 365.348C769.157 364.316 768.329 363.536 767.273 363.008C766.217 362.48 765.065 362.216 763.817 362.216C761.945 362.216 760.349 362.816 759.029 364.016C757.709 365.216 756.977 366.908 756.833 369.092H770.657ZM780.704 363.836C781.256 362.612 782.096 361.664 783.224 360.992C784.376 360.32 785.78 359.984 787.436 359.984V362.612H786.752C784.928 362.612 783.464 363.104 782.36 364.088C781.256 365.072 780.704 366.716 780.704 369.02V380H778.184V360.344H780.704V363.836ZM798.355 380.288C796.099 380.288 794.251 379.772 792.811 378.74C791.395 377.684 790.603 376.256 790.435 374.456H793.027C793.147 375.56 793.663 376.46 794.575 377.156C795.511 377.828 796.759 378.164 798.319 378.164C799.687 378.164 800.755 377.84 801.523 377.192C802.315 376.544 802.711 375.74 802.711 374.78C802.711 374.108 802.495 373.556 802.063 373.124C801.631 372.692 801.079 372.356 800.407 372.116C799.759 371.852 798.871 371.576 797.743 371.288C796.279 370.904 795.091 370.52 794.179 370.136C793.267 369.752 792.487 369.188 791.839 368.444C791.215 367.676 790.903 366.656 790.903 365.384C790.903 364.424 791.191 363.536 791.767 362.72C792.343 361.904 793.159 361.256 794.215 360.776C795.271 360.296 796.471 360.056 797.815 360.056C799.927 360.056 801.631 360.596 802.927 361.676C804.223 362.732 804.919 364.196 805.015 366.068H802.495C802.423 364.916 801.967 363.992 801.127 363.296C800.311 362.576 799.183 362.216 797.743 362.216C796.471 362.216 795.439 362.516 794.647 363.116C793.855 363.716 793.459 364.46 793.459 365.348C793.459 366.116 793.687 366.752 794.143 367.256C794.623 367.736 795.211 368.12 795.907 368.408C796.603 368.672 797.539 368.972 798.715 369.308C800.131 369.692 801.259 370.064 802.099 370.424C802.939 370.784 803.659 371.312 804.259 372.008C804.859 372.704 805.171 373.628 805.195 374.78C805.195 375.836 804.907 376.784 804.331 377.624C803.755 378.44 802.951 379.088 801.919 379.568C800.887 380.048 799.699 380.288 798.355 380.288ZM810.73 380.18C810.202 380.18 809.758 380 809.398 379.64C809.062 379.28 808.894 378.836 808.894 378.308C808.894 377.78 809.062 377.348 809.398 377.012C809.758 376.652 810.202 376.472 810.73 376.472C811.234 376.472 811.654 376.652 811.99 377.012C812.35 377.348 812.53 377.78 812.53 378.308C812.53 378.836 812.35 379.28 811.99 379.64C811.654 380 811.234 380.18 810.73 380.18Z" fill="#1E1E1E"/>
    <path d="M114.296 145.096C114.296 147.976 113.352 150.296 111.464 152.056C109.576 153.816 106.744 154.696 102.968 154.696H96.2V169H92.84V135.448H102.968C106.712 135.448 109.528 136.328 111.416 138.088C113.336 139.848 114.296 142.184 114.296 145.096ZM102.968 151.816C108.216 151.816 110.84 149.576 110.84 145.096C110.84 142.856 110.216 141.16 108.968 140.008C107.72 138.856 105.72 138.28 102.968 138.28H96.2V151.816H102.968ZM131.886 169.384C129.422 169.384 127.198 168.84 125.214 167.752C123.262 166.632 121.71 165.064 120.558 163.048C119.438 161 118.878 158.616 118.878 155.896C118.878 153.176 119.454 150.808 120.606 148.792C121.758 146.744 123.326 145.176 125.31 144.088C127.294 142.968 129.518 142.408 131.982 142.408C134.446 142.408 136.67 142.968 138.654 144.088C140.67 145.176 142.238 146.744 143.358 148.792C144.51 150.808 145.086 153.176 145.086 155.896C145.086 158.584 144.51 160.952 143.358 163C142.206 165.048 140.622 166.632 138.606 167.752C136.59 168.84 134.35 169.384 131.886 169.384ZM131.886 166.456C133.614 166.456 135.214 166.072 136.686 165.304C138.158 164.504 139.342 163.32 140.238 161.752C141.166 160.152 141.63 158.2 141.63 155.896C141.63 153.592 141.182 151.656 140.286 150.088C139.39 148.488 138.206 147.304 136.734 146.536C135.262 145.736 133.662 145.336 131.934 145.336C130.206 145.336 128.606 145.736 127.134 146.536C125.662 147.304 124.478 148.488 123.582 150.088C122.718 151.656 122.286 153.592 122.286 155.896C122.286 158.2 122.718 160.152 123.582 161.752C124.478 163.32 125.646 164.504 127.086 165.304C128.558 166.072 130.158 166.456 131.886 166.456ZM186.251 142.792L178.043 169H174.683L167.435 147.016L160.187 169H156.779L148.571 142.792H151.979L158.507 165.592L165.851 142.792H169.211L176.459 165.64L182.939 142.792H186.251ZM215.023 154.552C215.023 155.704 214.991 156.584 214.927 157.192H193.183C193.279 159.176 193.759 160.872 194.623 162.28C195.487 163.688 196.623 164.76 198.031 165.496C199.439 166.2 200.975 166.552 202.639 166.552C204.815 166.552 206.639 166.024 208.111 164.968C209.615 163.912 210.607 162.488 211.087 160.696H214.639C213.999 163.256 212.623 165.352 210.511 166.984C208.431 168.584 205.807 169.384 202.639 169.384C200.175 169.384 197.967 168.84 196.015 167.752C194.063 166.632 192.527 165.064 191.407 163.048C190.319 161 189.775 158.616 189.775 155.896C189.775 153.176 190.319 150.792 191.407 148.744C192.495 146.696 194.015 145.128 195.967 144.04C197.919 142.952 200.143 142.408 202.639 142.408C205.135 142.408 207.311 142.952 209.167 144.04C211.055 145.128 212.495 146.6 213.487 148.456C214.511 150.28 215.023 152.312 215.023 154.552ZM211.615 154.456C211.647 152.504 211.247 150.84 210.415 149.464C209.615 148.088 208.511 147.048 207.103 146.344C205.695 145.64 204.159 145.288 202.495 145.288C199.999 145.288 197.871 146.088 196.111 147.688C194.351 149.288 193.375 151.544 193.183 154.456H211.615ZM225.011 147.448C225.747 145.816 226.867 144.552 228.371 143.656C229.907 142.76 231.779 142.312 233.987 142.312V145.816H233.075C230.643 145.816 228.691 146.472 227.219 147.784C225.747 149.096 225.011 151.288 225.011 154.36V169H221.651V142.792H225.011V147.448ZM263.233 154.552C263.233 155.704 263.201 156.584 263.137 157.192H241.393C241.489 159.176 241.969 160.872 242.833 162.28C243.697 163.688 244.833 164.76 246.241 165.496C247.649 166.2 249.185 166.552 250.849 166.552C253.025 166.552 254.849 166.024 256.321 164.968C257.825 163.912 258.817 162.488 259.297 160.696H262.849C262.209 163.256 260.833 165.352 258.721 166.984C256.641 168.584 254.017 169.384 250.849 169.384C248.385 169.384 246.177 168.84 244.225 167.752C242.273 166.632 240.737 165.064 239.617 163.048C238.529 161 237.985 158.616 237.985 155.896C237.985 153.176 238.529 150.792 239.617 148.744C240.705 146.696 242.225 145.128 244.177 144.04C246.129 142.952 248.353 142.408 250.849 142.408C253.345 142.408 255.521 142.952 257.377 144.04C259.265 145.128 260.705 146.6 261.697 148.456C262.721 150.28 263.233 152.312 263.233 154.552ZM259.825 154.456C259.857 152.504 259.457 150.84 258.625 149.464C257.825 148.088 256.721 147.048 255.313 146.344C253.905 145.64 252.369 145.288 250.705 145.288C248.209 145.288 246.081 146.088 244.321 147.688C242.561 149.288 241.585 151.544 241.393 154.456H259.825ZM268.325 155.848C268.325 153.16 268.869 150.808 269.957 148.792C271.045 146.744 272.533 145.176 274.421 144.088C276.341 142.968 278.501 142.408 280.901 142.408C283.205 142.408 285.285 142.968 287.141 144.088C288.997 145.208 290.357 146.664 291.221 148.456V133.48H294.581V169H291.221V163.144C290.421 164.968 289.109 166.472 287.285 167.656C285.461 168.808 283.317 169.384 280.853 169.384C278.453 169.384 276.293 168.824 274.373 167.704C272.485 166.584 270.997 165 269.909 162.952C268.853 160.904 268.325 158.536 268.325 155.848ZM291.221 155.896C291.221 153.784 290.789 151.928 289.925 150.328C289.061 148.728 287.877 147.496 286.373 146.632C284.901 145.768 283.269 145.336 281.477 145.336C279.621 145.336 277.957 145.752 276.485 146.584C275.013 147.416 273.845 148.632 272.981 150.232C272.149 151.8 271.733 153.672 271.733 155.848C271.733 157.992 272.149 159.88 272.981 161.512C273.845 163.112 275.013 164.344 276.485 165.208C277.957 166.04 279.621 166.456 281.477 166.456C283.269 166.456 284.901 166.024 286.373 165.16C287.877 164.296 289.061 163.064 289.925 161.464C290.789 159.864 291.221 158.008 291.221 155.896ZM332.079 151.672C333.967 152.024 335.567 152.984 336.879 154.552C338.191 156.12 338.847 157.944 338.847 160.024C338.847 161.72 338.415 163.256 337.551 164.632C336.719 165.976 335.487 167.048 333.855 167.848C332.223 168.616 330.271 169 327.999 169H316.383V135.448H327.663C331.055 135.448 333.631 136.232 335.391 137.8C337.183 139.368 338.079 141.4 338.079 143.896C338.079 145.976 337.519 147.672 336.399 148.984C335.279 150.264 333.839 151.16 332.079 151.672ZM319.743 150.28H327.567C329.839 150.28 331.583 149.752 332.799 148.696C334.047 147.608 334.671 146.12 334.671 144.232C334.671 142.376 334.047 140.92 332.799 139.864C331.583 138.808 329.791 138.28 327.423 138.28H319.743V150.28ZM327.759 166.168C330.191 166.168 332.079 165.592 333.423 164.44C334.799 163.288 335.487 161.704 335.487 159.688C335.487 157.672 334.767 156.072 333.327 154.888C331.919 153.672 330.015 153.064 327.615 153.064H319.743V166.168H327.759ZM367.104 142.792L351.552 181.336H348.048L353.136 168.856L342.384 142.792H346.08L355.008 165.16L363.648 142.792H367.104Z" fill="#1E1E1E"/>
</svg>
