<svg width="905" height="509" viewBox="0 0 905 509" fill="none" xmlns="http://www.w3.org/2000/svg">
    <rect width="905" height="509" fill="url(#paint0_linear_18_44)"/>
    <rect x="200.667" y="224" width="14.2222" height="72" rx="7.11111" fill="white"/>
    <rect x="147.333" y="224" width="14.2222" height="72" rx="7.11111" fill="white"/>
    <rect x="227.333" y="200" width="14.2222" height="96" rx="7.11111" fill="white"/>
    <rect x="120.667" y="200" width="14.2222" height="96" rx="7.11111" fill="white"/>
    <rect x="254" y="168" width="14.2222" height="128" rx="7.11111" fill="white"/>
    <rect x="94" y="168" width="14.2222" height="128" rx="7.11111" fill="white"/>
    <rect x="174" y="248" width="14.2222" height="48" rx="7.11111" fill="white"/>
    <path d="M351.472 254.472C351.472 257.544 351.387 259.891 351.216 261.512H293.232C293.488 266.803 294.768 271.325 297.072 275.08C299.376 278.835 302.405 281.693 306.16 283.656C309.915 285.533 314.011 286.472 318.448 286.472C324.251 286.472 329.115 285.064 333.04 282.248C337.051 279.432 339.696 275.635 340.976 270.856H350.448C348.741 277.683 345.072 283.272 339.44 287.624C333.893 291.891 326.896 294.024 318.448 294.024C311.877 294.024 305.989 292.573 300.784 289.672C295.579 286.685 291.483 282.504 288.496 277.128C285.595 271.667 284.144 265.309 284.144 258.056C284.144 250.803 285.595 244.445 288.496 238.984C291.397 233.523 295.451 229.341 300.656 226.44C305.861 223.539 311.792 222.088 318.448 222.088C325.104 222.088 330.907 223.539 335.856 226.44C340.891 229.341 344.731 233.267 347.376 238.216C350.107 243.08 351.472 248.499 351.472 254.472ZM342.384 254.216C342.469 249.011 341.403 244.573 339.184 240.904C337.051 237.235 334.107 234.461 330.352 232.584C326.597 230.707 322.501 229.768 318.064 229.768C311.408 229.768 305.733 231.901 301.04 236.168C296.347 240.435 293.744 246.451 293.232 254.216H342.384ZM401.913 221.832C410.276 221.832 417.102 224.435 422.393 229.64C427.684 234.76 430.329 242.227 430.329 252.04V293H421.497V253.064C421.497 245.469 419.577 239.667 415.737 235.656C411.982 231.645 406.82 229.64 400.249 229.64C393.508 229.64 388.132 231.773 384.121 236.04C380.11 240.307 378.105 246.579 378.105 254.856V293H369.145V223.112H378.105V235.016C380.324 230.749 383.524 227.507 387.705 225.288C391.886 222.984 396.622 221.832 401.913 221.832ZM463.073 230.664V274.056C463.073 278.323 463.884 281.267 465.505 282.888C467.126 284.509 469.985 285.32 474.081 285.32H482.273V293H472.673C466.358 293 461.665 291.549 458.593 288.648C455.521 285.661 453.985 280.797 453.985 274.056V230.664H444.257V223.112H453.985V205.576H463.073V223.112H482.273V230.664H463.073ZM502.81 209.928C501.018 209.928 499.482 209.288 498.202 208.008C496.922 206.728 496.282 205.149 496.282 203.272C496.282 201.395 496.922 199.859 498.202 198.664C499.482 197.384 501.018 196.744 502.81 196.744C504.602 196.744 506.138 197.384 507.418 198.664C508.698 199.859 509.338 201.395 509.338 203.272C509.338 205.149 508.698 206.728 507.418 208.008C506.138 209.288 504.602 209.928 502.81 209.928ZM507.29 223.112V293H498.33V223.112H507.29ZM553.692 284.296L577.244 223.112H586.716L558.684 293H548.572L520.54 223.112H530.14L553.692 284.296ZM630.732 294.024C624.161 294.024 618.231 292.573 612.94 289.672C607.735 286.685 603.596 282.504 600.524 277.128C597.537 271.667 596.044 265.309 596.044 258.056C596.044 250.803 597.58 244.488 600.652 239.112C603.724 233.651 607.905 229.469 613.196 226.568C618.487 223.581 624.417 222.088 630.988 222.088C637.559 222.088 643.489 223.581 648.78 226.568C654.156 229.469 658.337 233.651 661.324 239.112C664.396 244.488 665.932 250.803 665.932 258.056C665.932 265.224 664.396 271.539 661.324 277C658.252 282.461 654.028 286.685 648.652 289.672C643.276 292.573 637.303 294.024 630.732 294.024ZM630.732 286.216C635.34 286.216 639.607 285.192 643.532 283.144C647.457 281.011 650.615 277.853 653.004 273.672C655.479 269.405 656.716 264.2 656.716 258.056C656.716 251.912 655.521 246.749 653.132 242.568C650.743 238.301 647.585 235.144 643.66 233.096C639.735 230.963 635.468 229.896 630.86 229.896C626.252 229.896 621.985 230.963 618.06 233.096C614.135 235.144 610.977 238.301 608.588 242.568C606.284 246.749 605.132 251.912 605.132 258.056C605.132 264.2 606.284 269.405 608.588 273.672C610.977 277.853 614.092 281.011 617.932 283.144C621.857 285.192 626.124 286.216 630.732 286.216ZM685.081 293.64C683.204 293.64 681.625 293 680.345 291.72C679.15 290.44 678.553 288.861 678.553 286.984C678.553 285.107 679.15 283.571 680.345 282.376C681.625 281.096 683.204 280.456 685.081 280.456C686.873 280.456 688.366 281.096 689.561 282.376C690.841 283.571 691.481 285.107 691.481 286.984C691.481 288.861 690.841 290.44 689.561 291.72C688.366 293 686.873 293.64 685.081 293.64ZM759.915 271.752H719.211L711.403 293H701.931L734.571 204.68H744.683L777.195 293H767.723L759.915 271.752ZM757.227 264.328L739.563 215.944L721.899 264.328H757.227ZM801.815 203.528V293H792.855V203.528H801.815Z" fill="white"/>
    <path d="M167.4 320.888V330.284H176.94V332.372H167.4V341.912H178.02V344H164.88V318.8H178.02V320.888H167.4ZM206.745 323.984C209.049 323.984 210.921 324.716 212.361 326.18C213.825 327.62 214.557 329.72 214.557 332.48V344H212.073V332.768C212.073 330.632 211.557 329 210.525 327.872C209.493 326.744 208.089 326.18 206.313 326.18C204.465 326.18 202.989 326.792 201.885 328.016C200.781 329.24 200.229 331.016 200.229 333.344V344H197.745V332.768C197.745 330.632 197.229 329 196.197 327.872C195.165 326.744 193.749 326.18 191.949 326.18C190.101 326.18 188.625 326.792 187.521 328.016C186.417 329.24 185.865 331.016 185.865 333.344V344H183.345V324.344H185.865V327.728C186.489 326.504 187.377 325.58 188.529 324.956C189.681 324.308 190.965 323.984 192.381 323.984C194.085 323.984 195.573 324.392 196.845 325.208C198.141 326.024 199.077 327.224 199.653 328.808C200.181 327.248 201.081 326.06 202.353 325.244C203.649 324.404 205.113 323.984 206.745 323.984ZM222.998 328.664C223.622 327.344 224.606 326.252 225.95 325.388C227.318 324.5 228.938 324.056 230.81 324.056C232.586 324.056 234.182 324.476 235.598 325.316C237.038 326.132 238.154 327.308 238.946 328.844C239.762 330.356 240.17 332.12 240.17 334.136C240.17 336.152 239.762 337.928 238.946 339.464C238.154 341 237.038 342.188 235.598 343.028C234.182 343.868 232.586 344.288 230.81 344.288C228.962 344.288 227.354 343.856 225.986 342.992C224.618 342.104 223.622 341 222.998 339.68V353.288H220.514V324.344H222.998V328.664ZM237.614 334.136C237.614 332.504 237.29 331.1 236.642 329.924C236.018 328.724 235.154 327.812 234.05 327.188C232.946 326.564 231.698 326.252 230.306 326.252C228.962 326.252 227.726 326.576 226.598 327.224C225.494 327.872 224.618 328.796 223.97 329.996C223.322 331.196 222.998 332.588 222.998 334.172C222.998 335.756 223.322 337.148 223.97 338.348C224.618 339.548 225.494 340.472 226.598 341.12C227.726 341.768 228.962 342.092 230.306 342.092C231.698 342.092 232.946 341.78 234.05 341.156C235.154 340.508 236.018 339.584 236.642 338.384C237.29 337.16 237.614 335.744 237.614 334.136ZM253.771 344.288C251.923 344.288 250.255 343.88 248.767 343.064C247.303 342.224 246.139 341.048 245.275 339.536C244.435 338 244.015 336.212 244.015 334.172C244.015 332.132 244.447 330.356 245.311 328.844C246.175 327.308 247.351 326.132 248.839 325.316C250.327 324.476 251.995 324.056 253.843 324.056C255.691 324.056 257.359 324.476 258.847 325.316C260.359 326.132 261.535 327.308 262.375 328.844C263.239 330.356 263.671 332.132 263.671 334.172C263.671 336.188 263.239 337.964 262.375 339.5C261.511 341.036 260.323 342.224 258.811 343.064C257.299 343.88 255.619 344.288 253.771 344.288ZM253.771 342.092C255.067 342.092 256.267 341.804 257.371 341.228C258.475 340.628 259.363 339.74 260.035 338.564C260.731 337.364 261.079 335.9 261.079 334.172C261.079 332.444 260.743 330.992 260.071 329.816C259.399 328.616 258.511 327.728 257.407 327.152C256.303 326.552 255.103 326.252 253.807 326.252C252.511 326.252 251.311 326.552 250.207 327.152C249.103 327.728 248.215 328.616 247.543 329.816C246.895 330.992 246.571 332.444 246.571 334.172C246.571 335.9 246.895 337.364 247.543 338.564C248.215 339.74 249.091 340.628 250.171 341.228C251.275 341.804 252.475 342.092 253.771 342.092ZM294.545 324.344L288.389 344H285.869L280.433 327.512L274.997 344H272.441L266.285 324.344H268.841L273.737 341.444L279.245 324.344H281.765L287.201 341.48L292.061 324.344H294.545ZM316.124 333.164C316.124 334.028 316.1 334.688 316.052 335.144H299.744C299.816 336.632 300.176 337.904 300.824 338.96C301.472 340.016 302.324 340.82 303.38 341.372C304.436 341.9 305.588 342.164 306.836 342.164C308.468 342.164 309.836 341.768 310.94 340.976C312.068 340.184 312.812 339.116 313.172 337.772H315.836C315.356 339.692 314.324 341.264 312.74 342.488C311.18 343.688 309.212 344.288 306.836 344.288C304.988 344.288 303.332 343.88 301.868 343.064C300.404 342.224 299.252 341.048 298.412 339.536C297.596 338 297.188 336.212 297.188 334.172C297.188 332.132 297.596 330.344 298.412 328.808C299.228 327.272 300.368 326.096 301.832 325.28C303.296 324.464 304.964 324.056 306.836 324.056C308.708 324.056 310.34 324.464 311.732 325.28C313.148 326.096 314.228 327.2 314.972 328.592C315.74 329.96 316.124 331.484 316.124 333.164ZM313.568 333.092C313.592 331.628 313.292 330.38 312.668 329.348C312.068 328.316 311.24 327.536 310.184 327.008C309.128 326.48 307.976 326.216 306.728 326.216C304.856 326.216 303.26 326.816 301.94 328.016C300.62 329.216 299.888 330.908 299.744 333.092H313.568ZM323.615 327.836C324.167 326.612 325.007 325.664 326.135 324.992C327.287 324.32 328.691 323.984 330.347 323.984V326.612H329.663C327.839 326.612 326.375 327.104 325.271 328.088C324.167 329.072 323.615 330.716 323.615 333.02V344H321.095V324.344H323.615V327.836ZM343.585 331.4C343.585 328.928 344.125 326.72 345.205 324.776C346.285 322.808 347.761 321.284 349.633 320.204C351.505 319.1 353.593 318.548 355.897 318.548C358.705 318.548 361.105 319.22 363.097 320.564C365.113 321.884 366.577 323.756 367.489 326.18H364.537C363.817 324.476 362.713 323.144 361.225 322.184C359.761 321.224 357.985 320.744 355.897 320.744C354.049 320.744 352.381 321.176 350.893 322.04C349.429 322.904 348.277 324.152 347.437 325.784C346.597 327.392 346.177 329.264 346.177 331.4C346.177 333.536 346.597 335.408 347.437 337.016C348.277 338.624 349.429 339.86 350.893 340.724C352.381 341.588 354.049 342.02 355.897 342.02C357.985 342.02 359.761 341.552 361.225 340.616C362.713 339.656 363.817 338.336 364.537 336.656H367.489C366.577 339.056 365.113 340.916 363.097 342.236C361.081 343.556 358.681 344.216 355.897 344.216C353.593 344.216 351.505 343.676 349.633 342.596C347.761 341.492 346.285 339.968 345.205 338.024C344.125 336.08 343.585 333.872 343.585 331.4ZM381.474 344.288C379.626 344.288 377.958 343.88 376.47 343.064C375.006 342.224 373.842 341.048 372.978 339.536C372.138 338 371.718 336.212 371.718 334.172C371.718 332.132 372.15 330.356 373.014 328.844C373.878 327.308 375.054 326.132 376.542 325.316C378.03 324.476 379.698 324.056 381.546 324.056C383.394 324.056 385.062 324.476 386.55 325.316C388.062 326.132 389.238 327.308 390.078 328.844C390.942 330.356 391.374 332.132 391.374 334.172C391.374 336.188 390.942 337.964 390.078 339.5C389.214 341.036 388.026 342.224 386.514 343.064C385.002 343.88 383.322 344.288 381.474 344.288ZM381.474 342.092C382.77 342.092 383.97 341.804 385.074 341.228C386.178 340.628 387.066 339.74 387.738 338.564C388.434 337.364 388.782 335.9 388.782 334.172C388.782 332.444 388.446 330.992 387.774 329.816C387.102 328.616 386.214 327.728 385.11 327.152C384.006 326.552 382.806 326.252 381.51 326.252C380.214 326.252 379.014 326.552 377.91 327.152C376.806 327.728 375.918 328.616 375.246 329.816C374.598 330.992 374.274 332.444 374.274 334.172C374.274 335.9 374.598 337.364 375.246 338.564C375.918 339.74 376.794 340.628 377.874 341.228C378.978 341.804 380.178 342.092 381.474 342.092ZM395.176 334.136C395.176 332.12 395.572 330.356 396.364 328.844C397.18 327.308 398.296 326.132 399.712 325.316C401.152 324.476 402.772 324.056 404.572 324.056C406.444 324.056 408.052 324.488 409.396 325.352C410.764 326.216 411.748 327.32 412.348 328.664V324.344H414.868V344H412.348V339.644C411.724 340.988 410.728 342.104 409.36 342.992C408.016 343.856 406.408 344.288 404.536 344.288C402.76 344.288 401.152 343.868 399.712 343.028C398.296 342.188 397.18 341 396.364 339.464C395.572 337.928 395.176 336.152 395.176 334.136ZM412.348 334.172C412.348 332.588 412.024 331.196 411.376 329.996C410.728 328.796 409.84 327.872 408.712 327.224C407.608 326.576 406.384 326.252 405.04 326.252C403.648 326.252 402.4 326.564 401.296 327.188C400.192 327.812 399.316 328.724 398.668 329.924C398.044 331.1 397.732 332.504 397.732 334.136C397.732 335.744 398.044 337.16 398.668 338.384C399.316 339.584 400.192 340.508 401.296 341.156C402.4 341.78 403.648 342.092 405.04 342.092C406.384 342.092 407.608 341.768 408.712 341.12C409.84 340.472 410.728 339.548 411.376 338.348C412.024 337.148 412.348 335.756 412.348 334.172ZM419.829 334.172C419.829 332.132 420.237 330.356 421.053 328.844C421.869 327.308 422.997 326.132 424.437 325.316C425.877 324.476 427.521 324.056 429.369 324.056C431.793 324.056 433.785 324.656 435.345 325.856C436.929 327.056 437.949 328.688 438.405 330.752H435.705C435.369 329.336 434.637 328.232 433.509 327.44C432.405 326.624 431.025 326.216 429.369 326.216C428.049 326.216 426.861 326.516 425.805 327.116C424.749 327.716 423.909 328.616 423.285 329.816C422.685 330.992 422.385 332.444 422.385 334.172C422.385 335.9 422.685 337.364 423.285 338.564C423.909 339.764 424.749 340.664 425.805 341.264C426.861 341.864 428.049 342.164 429.369 342.164C431.025 342.164 432.405 341.768 433.509 340.976C434.637 340.16 435.369 339.032 435.705 337.592H438.405C437.949 339.608 436.929 341.228 435.345 342.452C433.761 343.676 431.769 344.288 429.369 344.288C427.521 344.288 425.877 343.88 424.437 343.064C422.997 342.224 421.869 341.048 421.053 339.536C420.237 338 419.829 336.212 419.829 334.172ZM452.779 323.984C454.267 323.984 455.599 324.296 456.775 324.92C457.975 325.544 458.911 326.504 459.583 327.8C460.279 329.072 460.627 330.632 460.627 332.48V344H458.143V332.768C458.143 330.632 457.603 329 456.523 327.872C455.467 326.744 454.015 326.18 452.167 326.18C450.271 326.18 448.759 326.78 447.631 327.98C446.503 329.18 445.939 330.944 445.939 333.272V344H443.419V317.36H445.939V327.692C446.563 326.516 447.475 325.604 448.675 324.956C449.899 324.308 451.267 323.984 452.779 323.984ZM484.344 333.164C484.344 334.028 484.32 334.688 484.272 335.144H467.964C468.036 336.632 468.396 337.904 469.044 338.96C469.692 340.016 470.544 340.82 471.6 341.372C472.656 341.9 473.808 342.164 475.056 342.164C476.688 342.164 478.056 341.768 479.16 340.976C480.288 340.184 481.032 339.116 481.392 337.772H484.056C483.576 339.692 482.544 341.264 480.96 342.488C479.4 343.688 477.432 344.288 475.056 344.288C473.208 344.288 471.552 343.88 470.088 343.064C468.624 342.224 467.472 341.048 466.632 339.536C465.816 338 465.408 336.212 465.408 334.172C465.408 332.132 465.816 330.344 466.632 328.808C467.448 327.272 468.588 326.096 470.052 325.28C471.516 324.464 473.184 324.056 475.056 324.056C476.928 324.056 478.56 324.464 479.952 325.28C481.368 326.096 482.448 327.2 483.192 328.592C483.96 329.96 484.344 331.484 484.344 333.164ZM481.788 333.092C481.812 331.628 481.512 330.38 480.888 329.348C480.288 328.316 479.46 327.536 478.404 327.008C477.348 326.48 476.196 326.216 474.948 326.216C473.076 326.216 471.48 326.816 470.16 328.016C468.84 329.216 468.108 330.908 467.964 333.092H481.788ZM496.083 344.288C493.827 344.288 491.979 343.772 490.539 342.74C489.123 341.684 488.331 340.256 488.163 338.456H490.755C490.875 339.56 491.391 340.46 492.303 341.156C493.239 341.828 494.487 342.164 496.047 342.164C497.415 342.164 498.483 341.84 499.251 341.192C500.043 340.544 500.439 339.74 500.439 338.78C500.439 338.108 500.223 337.556 499.791 337.124C499.359 336.692 498.807 336.356 498.135 336.116C497.487 335.852 496.599 335.576 495.471 335.288C494.007 334.904 492.819 334.52 491.907 334.136C490.995 333.752 490.215 333.188 489.567 332.444C488.943 331.676 488.631 330.656 488.631 329.384C488.631 328.424 488.919 327.536 489.495 326.72C490.071 325.904 490.887 325.256 491.943 324.776C492.999 324.296 494.199 324.056 495.543 324.056C497.655 324.056 499.359 324.596 500.655 325.676C501.951 326.732 502.647 328.196 502.743 330.068H500.223C500.151 328.916 499.695 327.992 498.855 327.296C498.039 326.576 496.911 326.216 495.471 326.216C494.199 326.216 493.167 326.516 492.375 327.116C491.583 327.716 491.187 328.46 491.187 329.348C491.187 330.116 491.415 330.752 491.871 331.256C492.351 331.736 492.939 332.12 493.635 332.408C494.331 332.672 495.267 332.972 496.443 333.308C497.859 333.692 498.987 334.064 499.827 334.424C500.667 334.784 501.387 335.312 501.987 336.008C502.587 336.704 502.899 337.628 502.923 338.78C502.923 339.836 502.635 340.784 502.059 341.624C501.483 342.44 500.679 343.088 499.647 343.568C498.615 344.048 497.427 344.288 496.083 344.288ZM508.458 344.18C507.93 344.18 507.486 344 507.126 343.64C506.79 343.28 506.622 342.836 506.622 342.308C506.622 341.78 506.79 341.348 507.126 341.012C507.486 340.652 507.93 340.472 508.458 340.472C508.962 340.472 509.382 340.652 509.718 341.012C510.078 341.348 510.258 341.78 510.258 342.308C510.258 342.836 510.078 343.28 509.718 343.64C509.382 344 508.962 344.18 508.458 344.18ZM527.684 320.888V330.284H537.224V332.372H527.684V341.912H538.304V344H525.164V318.8H538.304V320.888H527.684ZM546.15 317.36V344H543.63V317.36H546.15ZM570 333.164C570 334.028 569.976 334.688 569.928 335.144H553.62C553.692 336.632 554.052 337.904 554.7 338.96C555.348 340.016 556.2 340.82 557.256 341.372C558.312 341.9 559.464 342.164 560.712 342.164C562.344 342.164 563.712 341.768 564.816 340.976C565.944 340.184 566.688 339.116 567.048 337.772H569.712C569.232 339.692 568.2 341.264 566.616 342.488C565.056 343.688 563.088 344.288 560.712 344.288C558.864 344.288 557.208 343.88 555.744 343.064C554.28 342.224 553.128 341.048 552.288 339.536C551.472 338 551.064 336.212 551.064 334.172C551.064 332.132 551.472 330.344 552.288 328.808C553.104 327.272 554.244 326.096 555.708 325.28C557.172 324.464 558.84 324.056 560.712 324.056C562.584 324.056 564.216 324.464 565.608 325.28C567.024 326.096 568.104 327.2 568.848 328.592C569.616 329.96 570 331.484 570 333.164ZM567.444 333.092C567.468 331.628 567.168 330.38 566.544 329.348C565.944 328.316 565.116 327.536 564.06 327.008C563.004 326.48 561.852 326.216 560.604 326.216C558.732 326.216 557.136 326.816 555.816 328.016C554.496 329.216 553.764 330.908 553.62 333.092H567.444ZM581.955 341.552L588.579 324.344H591.243L583.359 344H580.515L572.631 324.344H575.331L581.955 341.552ZM593.866 334.136C593.866 332.12 594.262 330.356 595.054 328.844C595.87 327.308 596.986 326.132 598.402 325.316C599.842 324.476 601.462 324.056 603.262 324.056C605.134 324.056 606.742 324.488 608.086 325.352C609.454 326.216 610.438 327.32 611.038 328.664V324.344H613.558V344H611.038V339.644C610.414 340.988 609.418 342.104 608.05 342.992C606.706 343.856 605.098 344.288 603.226 344.288C601.45 344.288 599.842 343.868 598.402 343.028C596.986 342.188 595.87 341 595.054 339.464C594.262 337.928 593.866 336.152 593.866 334.136ZM611.038 334.172C611.038 332.588 610.714 331.196 610.066 329.996C609.418 328.796 608.53 327.872 607.402 327.224C606.298 326.576 605.074 326.252 603.73 326.252C602.338 326.252 601.09 326.564 599.986 327.188C598.882 327.812 598.006 328.724 597.358 329.924C596.734 331.1 596.422 332.504 596.422 334.136C596.422 335.744 596.734 337.16 597.358 338.384C598.006 339.584 598.882 340.508 599.986 341.156C601.09 341.78 602.338 342.092 603.73 342.092C605.074 342.092 606.298 341.768 607.402 341.12C608.53 340.472 609.418 339.548 610.066 338.348C610.714 337.148 611.038 335.756 611.038 334.172ZM622.947 326.468V338.672C622.947 339.872 623.175 340.7 623.631 341.156C624.087 341.612 624.891 341.84 626.043 341.84H628.347V344H625.647C623.871 344 622.551 343.592 621.687 342.776C620.823 341.936 620.391 340.568 620.391 338.672V326.468H617.655V324.344H620.391V319.412H622.947V324.344H628.347V326.468H622.947ZM650.647 333.164C650.647 334.028 650.623 334.688 650.575 335.144H634.267C634.339 336.632 634.699 337.904 635.347 338.96C635.995 340.016 636.847 340.82 637.903 341.372C638.959 341.9 640.111 342.164 641.359 342.164C642.991 342.164 644.359 341.768 645.463 340.976C646.591 340.184 647.335 339.116 647.695 337.772H650.359C649.879 339.692 648.847 341.264 647.263 342.488C645.703 343.688 643.735 344.288 641.359 344.288C639.511 344.288 637.855 343.88 636.391 343.064C634.927 342.224 633.775 341.048 632.935 339.536C632.119 338 631.711 336.212 631.711 334.172C631.711 332.132 632.119 330.344 632.935 328.808C633.751 327.272 634.891 326.096 636.355 325.28C637.819 324.464 639.487 324.056 641.359 324.056C643.231 324.056 644.863 324.464 646.255 325.28C647.671 326.096 648.751 327.2 649.495 328.592C650.263 329.96 650.647 331.484 650.647 333.164ZM648.091 333.092C648.115 331.628 647.815 330.38 647.191 329.348C646.591 328.316 645.763 327.536 644.707 327.008C643.651 326.48 642.499 326.216 641.251 326.216C639.379 326.216 637.783 326.816 636.463 328.016C635.143 329.216 634.411 330.908 634.267 333.092H648.091ZM668.377 341.948H677.413V344H665.857V318.836H668.377V341.948ZM699.153 333.164C699.153 334.028 699.129 334.688 699.081 335.144H682.773C682.845 336.632 683.205 337.904 683.853 338.96C684.501 340.016 685.353 340.82 686.409 341.372C687.465 341.9 688.617 342.164 689.865 342.164C691.497 342.164 692.865 341.768 693.969 340.976C695.097 340.184 695.841 339.116 696.201 337.772H698.865C698.385 339.692 697.353 341.264 695.769 342.488C694.209 343.688 692.241 344.288 689.865 344.288C688.017 344.288 686.361 343.88 684.897 343.064C683.433 342.224 682.281 341.048 681.441 339.536C680.625 338 680.217 336.212 680.217 334.172C680.217 332.132 680.625 330.344 681.441 328.808C682.257 327.272 683.397 326.096 684.861 325.28C686.325 324.464 687.993 324.056 689.865 324.056C691.737 324.056 693.369 324.464 694.761 325.28C696.177 326.096 697.257 327.2 698.001 328.592C698.769 329.96 699.153 331.484 699.153 333.164ZM696.597 333.092C696.621 331.628 696.321 330.38 695.697 329.348C695.097 328.316 694.269 327.536 693.213 327.008C692.157 326.48 691.005 326.216 689.757 326.216C687.885 326.216 686.289 326.816 684.969 328.016C683.649 329.216 682.917 330.908 682.773 333.092H696.597ZM702.971 334.136C702.971 332.12 703.367 330.356 704.159 328.844C704.975 327.308 706.091 326.132 707.507 325.316C708.947 324.476 710.567 324.056 712.367 324.056C714.239 324.056 715.847 324.488 717.191 325.352C718.559 326.216 719.543 327.32 720.143 328.664V324.344H722.663V344H720.143V339.644C719.519 340.988 718.523 342.104 717.155 342.992C715.811 343.856 714.203 344.288 712.331 344.288C710.555 344.288 708.947 343.868 707.507 343.028C706.091 342.188 704.975 341 704.159 339.464C703.367 337.928 702.971 336.152 702.971 334.136ZM720.143 334.172C720.143 332.588 719.819 331.196 719.171 329.996C718.523 328.796 717.635 327.872 716.507 327.224C715.403 326.576 714.179 326.252 712.835 326.252C711.443 326.252 710.195 326.564 709.091 327.188C707.987 327.812 707.111 328.724 706.463 329.924C705.839 331.1 705.527 332.504 705.527 334.136C705.527 335.744 705.839 337.16 706.463 338.384C707.111 339.584 707.987 340.508 709.091 341.156C710.195 341.78 711.443 342.092 712.835 342.092C714.179 342.092 715.403 341.768 716.507 341.12C717.635 340.472 718.523 339.548 719.171 338.348C719.819 337.148 720.143 335.756 720.143 334.172ZM727.624 334.136C727.624 332.12 728.032 330.356 728.848 328.844C729.664 327.308 730.78 326.132 732.196 325.316C733.636 324.476 735.256 324.056 737.056 324.056C738.784 324.056 740.344 324.476 741.736 325.316C743.128 326.156 744.148 327.248 744.796 328.592V317.36H747.316V344H744.796V339.608C744.196 340.976 743.212 342.104 741.844 342.992C740.476 343.856 738.868 344.288 737.02 344.288C735.22 344.288 733.6 343.868 732.16 343.028C730.744 342.188 729.628 341 728.812 339.464C728.02 337.928 727.624 336.152 727.624 334.136ZM744.796 334.172C744.796 332.588 744.472 331.196 743.824 329.996C743.176 328.796 742.288 327.872 741.16 327.224C740.056 326.576 738.832 326.252 737.488 326.252C736.096 326.252 734.848 326.564 733.744 327.188C732.64 327.812 731.764 328.724 731.116 329.924C730.492 331.1 730.18 332.504 730.18 334.136C730.18 335.744 730.492 337.16 731.116 338.384C731.764 339.584 732.64 340.508 733.744 341.156C734.848 341.78 736.096 342.092 737.488 342.092C738.832 342.092 740.056 341.768 741.16 341.12C742.288 340.472 743.176 339.548 743.824 338.348C744.472 337.148 744.796 335.756 744.796 334.172ZM771.213 333.164C771.213 334.028 771.189 334.688 771.141 335.144H754.833C754.905 336.632 755.265 337.904 755.913 338.96C756.561 340.016 757.413 340.82 758.469 341.372C759.525 341.9 760.677 342.164 761.925 342.164C763.557 342.164 764.925 341.768 766.029 340.976C767.157 340.184 767.901 339.116 768.261 337.772H770.925C770.445 339.692 769.413 341.264 767.829 342.488C766.269 343.688 764.301 344.288 761.925 344.288C760.077 344.288 758.421 343.88 756.957 343.064C755.493 342.224 754.341 341.048 753.501 339.536C752.685 338 752.277 336.212 752.277 334.172C752.277 332.132 752.685 330.344 753.501 328.808C754.317 327.272 755.457 326.096 756.921 325.28C758.385 324.464 760.053 324.056 761.925 324.056C763.797 324.056 765.429 324.464 766.821 325.28C768.237 326.096 769.317 327.2 770.061 328.592C770.829 329.96 771.213 331.484 771.213 333.164ZM768.657 333.092C768.681 331.628 768.381 330.38 767.757 329.348C767.157 328.316 766.329 327.536 765.273 327.008C764.217 326.48 763.065 326.216 761.817 326.216C759.945 326.216 758.349 326.816 757.029 328.016C755.709 329.216 754.977 330.908 754.833 333.092H768.657ZM778.704 327.836C779.256 326.612 780.096 325.664 781.224 324.992C782.376 324.32 783.78 323.984 785.436 323.984V326.612H784.752C782.928 326.612 781.464 327.104 780.36 328.088C779.256 329.072 778.704 330.716 778.704 333.02V344H776.184V324.344H778.704V327.836ZM796.355 344.288C794.099 344.288 792.251 343.772 790.811 342.74C789.395 341.684 788.603 340.256 788.435 338.456H791.027C791.147 339.56 791.663 340.46 792.575 341.156C793.511 341.828 794.759 342.164 796.319 342.164C797.687 342.164 798.755 341.84 799.523 341.192C800.315 340.544 800.711 339.74 800.711 338.78C800.711 338.108 800.495 337.556 800.063 337.124C799.631 336.692 799.079 336.356 798.407 336.116C797.759 335.852 796.871 335.576 795.743 335.288C794.279 334.904 793.091 334.52 792.179 334.136C791.267 333.752 790.487 333.188 789.839 332.444C789.215 331.676 788.903 330.656 788.903 329.384C788.903 328.424 789.191 327.536 789.767 326.72C790.343 325.904 791.159 325.256 792.215 324.776C793.271 324.296 794.471 324.056 795.815 324.056C797.927 324.056 799.631 324.596 800.927 325.676C802.223 326.732 802.919 328.196 803.015 330.068H800.495C800.423 328.916 799.967 327.992 799.127 327.296C798.311 326.576 797.183 326.216 795.743 326.216C794.471 326.216 793.439 326.516 792.647 327.116C791.855 327.716 791.459 328.46 791.459 329.348C791.459 330.116 791.687 330.752 792.143 331.256C792.623 331.736 793.211 332.12 793.907 332.408C794.603 332.672 795.539 332.972 796.715 333.308C798.131 333.692 799.259 334.064 800.099 334.424C800.939 334.784 801.659 335.312 802.259 336.008C802.859 336.704 803.171 337.628 803.195 338.78C803.195 339.836 802.907 340.784 802.331 341.624C801.755 342.44 800.951 343.088 799.919 343.568C798.887 344.048 797.699 344.288 796.355 344.288ZM808.73 344.18C808.202 344.18 807.758 344 807.398 343.64C807.062 343.28 806.894 342.836 806.894 342.308C806.894 341.78 807.062 341.348 807.398 341.012C807.758 340.652 808.202 340.472 808.73 340.472C809.234 340.472 809.654 340.652 809.99 341.012C810.35 341.348 810.53 341.78 810.53 342.308C810.53 342.836 810.35 343.28 809.99 343.64C809.654 344 809.234 344.18 808.73 344.18Z" fill="white" fill-opacity="0.9"/>
    <defs>
        <linearGradient id="paint0_linear_18_44" x1="452.5" y1="509" x2="452.5" y2="0" gradientUnits="userSpaceOnUse">
            <stop stop-color="#0B3D91"/>
            <stop offset="1" stop-color="#345EC2"/>
        </linearGradient>
    </defs>
</svg>
