<svg width="811" height="315" viewBox="0 0 811 315" fill="none" xmlns="http://www.w3.org/2000/svg">
    <rect x="153.667" y="127" width="14.2222" height="72" rx="7.11111" fill="white"/>
    <rect x="100.333" y="127" width="14.2222" height="72" rx="7.11111" fill="white"/>
    <rect x="180.333" y="103" width="14.2222" height="96" rx="7.11111" fill="white"/>
    <rect x="73.6665" y="103" width="14.2222" height="96" rx="7.11111" fill="white"/>
    <rect x="207" y="71" width="14.2222" height="128" rx="7.11111" fill="white"/>
    <rect x="47" y="71" width="14.2222" height="128" rx="7.11111" fill="white"/>
    <rect x="127" y="151" width="14.2222" height="48" rx="7.11111" fill="white"/>
    <path d="M304.472 157.472C304.472 160.544 304.387 162.891 304.216 164.512H246.232C246.488 169.803 247.768 174.325 250.072 178.08C252.376 181.835 255.405 184.693 259.16 186.656C262.915 188.533 267.011 189.472 271.448 189.472C277.251 189.472 282.115 188.064 286.04 185.248C290.051 182.432 292.696 178.635 293.976 173.856H303.448C301.741 180.683 298.072 186.272 292.44 190.624C286.893 194.891 279.896 197.024 271.448 197.024C264.877 197.024 258.989 195.573 253.784 192.672C248.579 189.685 244.483 185.504 241.496 180.128C238.595 174.667 237.144 168.309 237.144 161.056C237.144 153.803 238.595 147.445 241.496 141.984C244.397 136.523 248.451 132.341 253.656 129.44C258.861 126.539 264.792 125.088 271.448 125.088C278.104 125.088 283.907 126.539 288.856 129.44C293.891 132.341 297.731 136.267 300.376 141.216C303.107 146.08 304.472 151.499 304.472 157.472ZM295.384 157.216C295.469 152.011 294.403 147.573 292.184 143.904C290.051 140.235 287.107 137.461 283.352 135.584C279.597 133.707 275.501 132.768 271.064 132.768C264.408 132.768 258.733 134.901 254.04 139.168C249.347 143.435 246.744 149.451 246.232 157.216H295.384ZM354.913 124.832C363.276 124.832 370.102 127.435 375.393 132.64C380.684 137.76 383.329 145.227 383.329 155.04V196H374.497V156.064C374.497 148.469 372.577 142.667 368.737 138.656C364.982 134.645 359.82 132.64 353.249 132.64C346.508 132.64 341.132 134.773 337.121 139.04C333.11 143.307 331.105 149.579 331.105 157.856V196H322.145V126.112H331.105V138.016C333.324 133.749 336.524 130.507 340.705 128.288C344.886 125.984 349.622 124.832 354.913 124.832ZM416.073 133.664V177.056C416.073 181.323 416.884 184.267 418.505 185.888C420.126 187.509 422.985 188.32 427.081 188.32H435.273V196H425.673C419.358 196 414.665 194.549 411.593 191.648C408.521 188.661 406.985 183.797 406.985 177.056V133.664H397.257V126.112H406.985V108.576H416.073V126.112H435.273V133.664H416.073ZM455.81 112.928C454.018 112.928 452.482 112.288 451.202 111.008C449.922 109.728 449.282 108.149 449.282 106.272C449.282 104.395 449.922 102.859 451.202 101.664C452.482 100.384 454.018 99.744 455.81 99.744C457.602 99.744 459.138 100.384 460.418 101.664C461.698 102.859 462.338 104.395 462.338 106.272C462.338 108.149 461.698 109.728 460.418 111.008C459.138 112.288 457.602 112.928 455.81 112.928ZM460.29 126.112V196H451.33V126.112H460.29ZM506.692 187.296L530.244 126.112H539.716L511.684 196H501.572L473.54 126.112H483.14L506.692 187.296ZM583.732 197.024C577.161 197.024 571.231 195.573 565.94 192.672C560.735 189.685 556.596 185.504 553.524 180.128C550.537 174.667 549.044 168.309 549.044 161.056C549.044 153.803 550.58 147.488 553.652 142.112C556.724 136.651 560.905 132.469 566.196 129.568C571.487 126.581 577.417 125.088 583.988 125.088C590.559 125.088 596.489 126.581 601.78 129.568C607.156 132.469 611.337 136.651 614.324 142.112C617.396 147.488 618.932 153.803 618.932 161.056C618.932 168.224 617.396 174.539 614.324 180C611.252 185.461 607.028 189.685 601.652 192.672C596.276 195.573 590.303 197.024 583.732 197.024ZM583.732 189.216C588.34 189.216 592.607 188.192 596.532 186.144C600.457 184.011 603.615 180.853 606.004 176.672C608.479 172.405 609.716 167.2 609.716 161.056C609.716 154.912 608.521 149.749 606.132 145.568C603.743 141.301 600.585 138.144 596.66 136.096C592.735 133.963 588.468 132.896 583.86 132.896C579.252 132.896 574.985 133.963 571.06 136.096C567.135 138.144 563.977 141.301 561.588 145.568C559.284 149.749 558.132 154.912 558.132 161.056C558.132 167.2 559.284 172.405 561.588 176.672C563.977 180.853 567.092 184.011 570.932 186.144C574.857 188.192 579.124 189.216 583.732 189.216ZM638.081 196.64C636.204 196.64 634.625 196 633.345 194.72C632.15 193.44 631.553 191.861 631.553 189.984C631.553 188.107 632.15 186.571 633.345 185.376C634.625 184.096 636.204 183.456 638.081 183.456C639.873 183.456 641.366 184.096 642.561 185.376C643.841 186.571 644.481 188.107 644.481 189.984C644.481 191.861 643.841 193.44 642.561 194.72C641.366 196 639.873 196.64 638.081 196.64ZM712.915 174.752H672.211L664.403 196H654.931L687.571 107.68H697.683L730.195 196H720.723L712.915 174.752ZM710.227 167.328L692.563 118.944L674.899 167.328H710.227ZM754.815 106.528V196H745.855V106.528H754.815Z" fill="white"/>
    <path d="M120.4 223.888V233.284H129.94V235.372H120.4V244.912H131.02V247H117.88V221.8H131.02V223.888H120.4ZM159.745 226.984C162.049 226.984 163.921 227.716 165.361 229.18C166.825 230.62 167.557 232.72 167.557 235.48V247H165.073V235.768C165.073 233.632 164.557 232 163.525 230.872C162.493 229.744 161.089 229.18 159.313 229.18C157.465 229.18 155.989 229.792 154.885 231.016C153.781 232.24 153.229 234.016 153.229 236.344V247H150.745V235.768C150.745 233.632 150.229 232 149.197 230.872C148.165 229.744 146.749 229.18 144.949 229.18C143.101 229.18 141.625 229.792 140.521 231.016C139.417 232.24 138.865 234.016 138.865 236.344V247H136.345V227.344H138.865V230.728C139.489 229.504 140.377 228.58 141.529 227.956C142.681 227.308 143.965 226.984 145.381 226.984C147.085 226.984 148.573 227.392 149.845 228.208C151.141 229.024 152.077 230.224 152.653 231.808C153.181 230.248 154.081 229.06 155.353 228.244C156.649 227.404 158.113 226.984 159.745 226.984ZM175.998 231.664C176.622 230.344 177.606 229.252 178.95 228.388C180.318 227.5 181.938 227.056 183.81 227.056C185.586 227.056 187.182 227.476 188.598 228.316C190.038 229.132 191.154 230.308 191.946 231.844C192.762 233.356 193.17 235.12 193.17 237.136C193.17 239.152 192.762 240.928 191.946 242.464C191.154 244 190.038 245.188 188.598 246.028C187.182 246.868 185.586 247.288 183.81 247.288C181.962 247.288 180.354 246.856 178.986 245.992C177.618 245.104 176.622 244 175.998 242.68V256.288H173.514V227.344H175.998V231.664ZM190.614 237.136C190.614 235.504 190.29 234.1 189.642 232.924C189.018 231.724 188.154 230.812 187.05 230.188C185.946 229.564 184.698 229.252 183.306 229.252C181.962 229.252 180.726 229.576 179.598 230.224C178.494 230.872 177.618 231.796 176.97 232.996C176.322 234.196 175.998 235.588 175.998 237.172C175.998 238.756 176.322 240.148 176.97 241.348C177.618 242.548 178.494 243.472 179.598 244.12C180.726 244.768 181.962 245.092 183.306 245.092C184.698 245.092 185.946 244.78 187.05 244.156C188.154 243.508 189.018 242.584 189.642 241.384C190.29 240.16 190.614 238.744 190.614 237.136ZM206.771 247.288C204.923 247.288 203.255 246.88 201.767 246.064C200.303 245.224 199.139 244.048 198.275 242.536C197.435 241 197.015 239.212 197.015 237.172C197.015 235.132 197.447 233.356 198.311 231.844C199.175 230.308 200.351 229.132 201.839 228.316C203.327 227.476 204.995 227.056 206.843 227.056C208.691 227.056 210.359 227.476 211.847 228.316C213.359 229.132 214.535 230.308 215.375 231.844C216.239 233.356 216.671 235.132 216.671 237.172C216.671 239.188 216.239 240.964 215.375 242.5C214.511 244.036 213.323 245.224 211.811 246.064C210.299 246.88 208.619 247.288 206.771 247.288ZM206.771 245.092C208.067 245.092 209.267 244.804 210.371 244.228C211.475 243.628 212.363 242.74 213.035 241.564C213.731 240.364 214.079 238.9 214.079 237.172C214.079 235.444 213.743 233.992 213.071 232.816C212.399 231.616 211.511 230.728 210.407 230.152C209.303 229.552 208.103 229.252 206.807 229.252C205.511 229.252 204.311 229.552 203.207 230.152C202.103 230.728 201.215 231.616 200.543 232.816C199.895 233.992 199.571 235.444 199.571 237.172C199.571 238.9 199.895 240.364 200.543 241.564C201.215 242.74 202.091 243.628 203.171 244.228C204.275 244.804 205.475 245.092 206.771 245.092ZM247.545 227.344L241.389 247H238.869L233.433 230.512L227.997 247H225.441L219.285 227.344H221.841L226.737 244.444L232.245 227.344H234.765L240.201 244.48L245.061 227.344H247.545ZM269.124 236.164C269.124 237.028 269.1 237.688 269.052 238.144H252.744C252.816 239.632 253.176 240.904 253.824 241.96C254.472 243.016 255.324 243.82 256.38 244.372C257.436 244.9 258.588 245.164 259.836 245.164C261.468 245.164 262.836 244.768 263.94 243.976C265.068 243.184 265.812 242.116 266.172 240.772H268.836C268.356 242.692 267.324 244.264 265.74 245.488C264.18 246.688 262.212 247.288 259.836 247.288C257.988 247.288 256.332 246.88 254.868 246.064C253.404 245.224 252.252 244.048 251.412 242.536C250.596 241 250.188 239.212 250.188 237.172C250.188 235.132 250.596 233.344 251.412 231.808C252.228 230.272 253.368 229.096 254.832 228.28C256.296 227.464 257.964 227.056 259.836 227.056C261.708 227.056 263.34 227.464 264.732 228.28C266.148 229.096 267.228 230.2 267.972 231.592C268.74 232.96 269.124 234.484 269.124 236.164ZM266.568 236.092C266.592 234.628 266.292 233.38 265.668 232.348C265.068 231.316 264.24 230.536 263.184 230.008C262.128 229.48 260.976 229.216 259.728 229.216C257.856 229.216 256.26 229.816 254.94 231.016C253.62 232.216 252.888 233.908 252.744 236.092H266.568ZM276.615 230.836C277.167 229.612 278.007 228.664 279.135 227.992C280.287 227.32 281.691 226.984 283.347 226.984V229.612H282.663C280.839 229.612 279.375 230.104 278.271 231.088C277.167 232.072 276.615 233.716 276.615 236.02V247H274.095V227.344H276.615V230.836ZM296.585 234.4C296.585 231.928 297.125 229.72 298.205 227.776C299.285 225.808 300.761 224.284 302.633 223.204C304.505 222.1 306.593 221.548 308.897 221.548C311.705 221.548 314.105 222.22 316.097 223.564C318.113 224.884 319.577 226.756 320.489 229.18H317.537C316.817 227.476 315.713 226.144 314.225 225.184C312.761 224.224 310.985 223.744 308.897 223.744C307.049 223.744 305.381 224.176 303.893 225.04C302.429 225.904 301.277 227.152 300.437 228.784C299.597 230.392 299.177 232.264 299.177 234.4C299.177 236.536 299.597 238.408 300.437 240.016C301.277 241.624 302.429 242.86 303.893 243.724C305.381 244.588 307.049 245.02 308.897 245.02C310.985 245.02 312.761 244.552 314.225 243.616C315.713 242.656 316.817 241.336 317.537 239.656H320.489C319.577 242.056 318.113 243.916 316.097 245.236C314.081 246.556 311.681 247.216 308.897 247.216C306.593 247.216 304.505 246.676 302.633 245.596C300.761 244.492 299.285 242.968 298.205 241.024C297.125 239.08 296.585 236.872 296.585 234.4ZM334.474 247.288C332.626 247.288 330.958 246.88 329.47 246.064C328.006 245.224 326.842 244.048 325.978 242.536C325.138 241 324.718 239.212 324.718 237.172C324.718 235.132 325.15 233.356 326.014 231.844C326.878 230.308 328.054 229.132 329.542 228.316C331.03 227.476 332.698 227.056 334.546 227.056C336.394 227.056 338.062 227.476 339.55 228.316C341.062 229.132 342.238 230.308 343.078 231.844C343.942 233.356 344.374 235.132 344.374 237.172C344.374 239.188 343.942 240.964 343.078 242.5C342.214 244.036 341.026 245.224 339.514 246.064C338.002 246.88 336.322 247.288 334.474 247.288ZM334.474 245.092C335.77 245.092 336.97 244.804 338.074 244.228C339.178 243.628 340.066 242.74 340.738 241.564C341.434 240.364 341.782 238.9 341.782 237.172C341.782 235.444 341.446 233.992 340.774 232.816C340.102 231.616 339.214 230.728 338.11 230.152C337.006 229.552 335.806 229.252 334.51 229.252C333.214 229.252 332.014 229.552 330.91 230.152C329.806 230.728 328.918 231.616 328.246 232.816C327.598 233.992 327.274 235.444 327.274 237.172C327.274 238.9 327.598 240.364 328.246 241.564C328.918 242.74 329.794 243.628 330.874 244.228C331.978 244.804 333.178 245.092 334.474 245.092ZM348.176 237.136C348.176 235.12 348.572 233.356 349.364 231.844C350.18 230.308 351.296 229.132 352.712 228.316C354.152 227.476 355.772 227.056 357.572 227.056C359.444 227.056 361.052 227.488 362.396 228.352C363.764 229.216 364.748 230.32 365.348 231.664V227.344H367.868V247H365.348V242.644C364.724 243.988 363.728 245.104 362.36 245.992C361.016 246.856 359.408 247.288 357.536 247.288C355.76 247.288 354.152 246.868 352.712 246.028C351.296 245.188 350.18 244 349.364 242.464C348.572 240.928 348.176 239.152 348.176 237.136ZM365.348 237.172C365.348 235.588 365.024 234.196 364.376 232.996C363.728 231.796 362.84 230.872 361.712 230.224C360.608 229.576 359.384 229.252 358.04 229.252C356.648 229.252 355.4 229.564 354.296 230.188C353.192 230.812 352.316 231.724 351.668 232.924C351.044 234.1 350.732 235.504 350.732 237.136C350.732 238.744 351.044 240.16 351.668 241.384C352.316 242.584 353.192 243.508 354.296 244.156C355.4 244.78 356.648 245.092 358.04 245.092C359.384 245.092 360.608 244.768 361.712 244.12C362.84 243.472 363.728 242.548 364.376 241.348C365.024 240.148 365.348 238.756 365.348 237.172ZM372.829 237.172C372.829 235.132 373.237 233.356 374.053 231.844C374.869 230.308 375.997 229.132 377.437 228.316C378.877 227.476 380.521 227.056 382.369 227.056C384.793 227.056 386.785 227.656 388.345 228.856C389.929 230.056 390.949 231.688 391.405 233.752H388.705C388.369 232.336 387.637 231.232 386.509 230.44C385.405 229.624 384.025 229.216 382.369 229.216C381.049 229.216 379.861 229.516 378.805 230.116C377.749 230.716 376.909 231.616 376.285 232.816C375.685 233.992 375.385 235.444 375.385 237.172C375.385 238.9 375.685 240.364 376.285 241.564C376.909 242.764 377.749 243.664 378.805 244.264C379.861 244.864 381.049 245.164 382.369 245.164C384.025 245.164 385.405 244.768 386.509 243.976C387.637 243.16 388.369 242.032 388.705 240.592H391.405C390.949 242.608 389.929 244.228 388.345 245.452C386.761 246.676 384.769 247.288 382.369 247.288C380.521 247.288 378.877 246.88 377.437 246.064C375.997 245.224 374.869 244.048 374.053 242.536C373.237 241 372.829 239.212 372.829 237.172ZM405.779 226.984C407.267 226.984 408.599 227.296 409.775 227.92C410.975 228.544 411.911 229.504 412.583 230.8C413.279 232.072 413.627 233.632 413.627 235.48V247H411.143V235.768C411.143 233.632 410.603 232 409.523 230.872C408.467 229.744 407.015 229.18 405.167 229.18C403.271 229.18 401.759 229.78 400.631 230.98C399.503 232.18 398.939 233.944 398.939 236.272V247H396.419V220.36H398.939V230.692C399.563 229.516 400.475 228.604 401.675 227.956C402.899 227.308 404.267 226.984 405.779 226.984ZM437.344 236.164C437.344 237.028 437.32 237.688 437.272 238.144H420.964C421.036 239.632 421.396 240.904 422.044 241.96C422.692 243.016 423.544 243.82 424.6 244.372C425.656 244.9 426.808 245.164 428.056 245.164C429.688 245.164 431.056 244.768 432.16 243.976C433.288 243.184 434.032 242.116 434.392 240.772H437.056C436.576 242.692 435.544 244.264 433.96 245.488C432.4 246.688 430.432 247.288 428.056 247.288C426.208 247.288 424.552 246.88 423.088 246.064C421.624 245.224 420.472 244.048 419.632 242.536C418.816 241 418.408 239.212 418.408 237.172C418.408 235.132 418.816 233.344 419.632 231.808C420.448 230.272 421.588 229.096 423.052 228.28C424.516 227.464 426.184 227.056 428.056 227.056C429.928 227.056 431.56 227.464 432.952 228.28C434.368 229.096 435.448 230.2 436.192 231.592C436.96 232.96 437.344 234.484 437.344 236.164ZM434.788 236.092C434.812 234.628 434.512 233.38 433.888 232.348C433.288 231.316 432.46 230.536 431.404 230.008C430.348 229.48 429.196 229.216 427.948 229.216C426.076 229.216 424.48 229.816 423.16 231.016C421.84 232.216 421.108 233.908 420.964 236.092H434.788ZM449.083 247.288C446.827 247.288 444.979 246.772 443.539 245.74C442.123 244.684 441.331 243.256 441.163 241.456H443.755C443.875 242.56 444.391 243.46 445.303 244.156C446.239 244.828 447.487 245.164 449.047 245.164C450.415 245.164 451.483 244.84 452.251 244.192C453.043 243.544 453.439 242.74 453.439 241.78C453.439 241.108 453.223 240.556 452.791 240.124C452.359 239.692 451.807 239.356 451.135 239.116C450.487 238.852 449.599 238.576 448.471 238.288C447.007 237.904 445.819 237.52 444.907 237.136C443.995 236.752 443.215 236.188 442.567 235.444C441.943 234.676 441.631 233.656 441.631 232.384C441.631 231.424 441.919 230.536 442.495 229.72C443.071 228.904 443.887 228.256 444.943 227.776C445.999 227.296 447.199 227.056 448.543 227.056C450.655 227.056 452.359 227.596 453.655 228.676C454.951 229.732 455.647 231.196 455.743 233.068H453.223C453.151 231.916 452.695 230.992 451.855 230.296C451.039 229.576 449.911 229.216 448.471 229.216C447.199 229.216 446.167 229.516 445.375 230.116C444.583 230.716 444.187 231.46 444.187 232.348C444.187 233.116 444.415 233.752 444.871 234.256C445.351 234.736 445.939 235.12 446.635 235.408C447.331 235.672 448.267 235.972 449.443 236.308C450.859 236.692 451.987 237.064 452.827 237.424C453.667 237.784 454.387 238.312 454.987 239.008C455.587 239.704 455.899 240.628 455.923 241.78C455.923 242.836 455.635 243.784 455.059 244.624C454.483 245.44 453.679 246.088 452.647 246.568C451.615 247.048 450.427 247.288 449.083 247.288ZM461.458 247.18C460.93 247.18 460.486 247 460.126 246.64C459.79 246.28 459.622 245.836 459.622 245.308C459.622 244.78 459.79 244.348 460.126 244.012C460.486 243.652 460.93 243.472 461.458 243.472C461.962 243.472 462.382 243.652 462.718 244.012C463.078 244.348 463.258 244.78 463.258 245.308C463.258 245.836 463.078 246.28 462.718 246.64C462.382 247 461.962 247.18 461.458 247.18ZM480.684 223.888V233.284H490.224V235.372H480.684V244.912H491.304V247H478.164V221.8H491.304V223.888H480.684ZM499.15 220.36V247H496.63V220.36H499.15ZM523 236.164C523 237.028 522.976 237.688 522.928 238.144H506.62C506.692 239.632 507.052 240.904 507.7 241.96C508.348 243.016 509.2 243.82 510.256 244.372C511.312 244.9 512.464 245.164 513.712 245.164C515.344 245.164 516.712 244.768 517.816 243.976C518.944 243.184 519.688 242.116 520.048 240.772H522.712C522.232 242.692 521.2 244.264 519.616 245.488C518.056 246.688 516.088 247.288 513.712 247.288C511.864 247.288 510.208 246.88 508.744 246.064C507.28 245.224 506.128 244.048 505.288 242.536C504.472 241 504.064 239.212 504.064 237.172C504.064 235.132 504.472 233.344 505.288 231.808C506.104 230.272 507.244 229.096 508.708 228.28C510.172 227.464 511.84 227.056 513.712 227.056C515.584 227.056 517.216 227.464 518.608 228.28C520.024 229.096 521.104 230.2 521.848 231.592C522.616 232.96 523 234.484 523 236.164ZM520.444 236.092C520.468 234.628 520.168 233.38 519.544 232.348C518.944 231.316 518.116 230.536 517.06 230.008C516.004 229.48 514.852 229.216 513.604 229.216C511.732 229.216 510.136 229.816 508.816 231.016C507.496 232.216 506.764 233.908 506.62 236.092H520.444ZM534.955 244.552L541.579 227.344H544.243L536.359 247H533.515L525.631 227.344H528.331L534.955 244.552ZM546.866 237.136C546.866 235.12 547.262 233.356 548.054 231.844C548.87 230.308 549.986 229.132 551.402 228.316C552.842 227.476 554.462 227.056 556.262 227.056C558.134 227.056 559.742 227.488 561.086 228.352C562.454 229.216 563.438 230.32 564.038 231.664V227.344H566.558V247H564.038V242.644C563.414 243.988 562.418 245.104 561.05 245.992C559.706 246.856 558.098 247.288 556.226 247.288C554.45 247.288 552.842 246.868 551.402 246.028C549.986 245.188 548.87 244 548.054 242.464C547.262 240.928 546.866 239.152 546.866 237.136ZM564.038 237.172C564.038 235.588 563.714 234.196 563.066 232.996C562.418 231.796 561.53 230.872 560.402 230.224C559.298 229.576 558.074 229.252 556.73 229.252C555.338 229.252 554.09 229.564 552.986 230.188C551.882 230.812 551.006 231.724 550.358 232.924C549.734 234.1 549.422 235.504 549.422 237.136C549.422 238.744 549.734 240.16 550.358 241.384C551.006 242.584 551.882 243.508 552.986 244.156C554.09 244.78 555.338 245.092 556.73 245.092C558.074 245.092 559.298 244.768 560.402 244.12C561.53 243.472 562.418 242.548 563.066 241.348C563.714 240.148 564.038 238.756 564.038 237.172ZM575.947 229.468V241.672C575.947 242.872 576.175 243.7 576.631 244.156C577.087 244.612 577.891 244.84 579.043 244.84H581.347V247H578.647C576.871 247 575.551 246.592 574.687 245.776C573.823 244.936 573.391 243.568 573.391 241.672V229.468H570.655V227.344H573.391V222.412H575.947V227.344H581.347V229.468H575.947ZM603.647 236.164C603.647 237.028 603.623 237.688 603.575 238.144H587.267C587.339 239.632 587.699 240.904 588.347 241.96C588.995 243.016 589.847 243.82 590.903 244.372C591.959 244.9 593.111 245.164 594.359 245.164C595.991 245.164 597.359 244.768 598.463 243.976C599.591 243.184 600.335 242.116 600.695 240.772H603.359C602.879 242.692 601.847 244.264 600.263 245.488C598.703 246.688 596.735 247.288 594.359 247.288C592.511 247.288 590.855 246.88 589.391 246.064C587.927 245.224 586.775 244.048 585.935 242.536C585.119 241 584.711 239.212 584.711 237.172C584.711 235.132 585.119 233.344 585.935 231.808C586.751 230.272 587.891 229.096 589.355 228.28C590.819 227.464 592.487 227.056 594.359 227.056C596.231 227.056 597.863 227.464 599.255 228.28C600.671 229.096 601.751 230.2 602.495 231.592C603.263 232.96 603.647 234.484 603.647 236.164ZM601.091 236.092C601.115 234.628 600.815 233.38 600.191 232.348C599.591 231.316 598.763 230.536 597.707 230.008C596.651 229.48 595.499 229.216 594.251 229.216C592.379 229.216 590.783 229.816 589.463 231.016C588.143 232.216 587.411 233.908 587.267 236.092H601.091ZM621.377 244.948H630.413V247H618.857V221.836H621.377V244.948ZM652.153 236.164C652.153 237.028 652.129 237.688 652.081 238.144H635.773C635.845 239.632 636.205 240.904 636.853 241.96C637.501 243.016 638.353 243.82 639.409 244.372C640.465 244.9 641.617 245.164 642.865 245.164C644.497 245.164 645.865 244.768 646.969 243.976C648.097 243.184 648.841 242.116 649.201 240.772H651.865C651.385 242.692 650.353 244.264 648.769 245.488C647.209 246.688 645.241 247.288 642.865 247.288C641.017 247.288 639.361 246.88 637.897 246.064C636.433 245.224 635.281 244.048 634.441 242.536C633.625 241 633.217 239.212 633.217 237.172C633.217 235.132 633.625 233.344 634.441 231.808C635.257 230.272 636.397 229.096 637.861 228.28C639.325 227.464 640.993 227.056 642.865 227.056C644.737 227.056 646.369 227.464 647.761 228.28C649.177 229.096 650.257 230.2 651.001 231.592C651.769 232.96 652.153 234.484 652.153 236.164ZM649.597 236.092C649.621 234.628 649.321 233.38 648.697 232.348C648.097 231.316 647.269 230.536 646.213 230.008C645.157 229.48 644.005 229.216 642.757 229.216C640.885 229.216 639.289 229.816 637.969 231.016C636.649 232.216 635.917 233.908 635.773 236.092H649.597ZM655.971 237.136C655.971 235.12 656.367 233.356 657.159 231.844C657.975 230.308 659.091 229.132 660.507 228.316C661.947 227.476 663.567 227.056 665.367 227.056C667.239 227.056 668.847 227.488 670.191 228.352C671.559 229.216 672.543 230.32 673.143 231.664V227.344H675.663V247H673.143V242.644C672.519 243.988 671.523 245.104 670.155 245.992C668.811 246.856 667.203 247.288 665.331 247.288C663.555 247.288 661.947 246.868 660.507 246.028C659.091 245.188 657.975 244 657.159 242.464C656.367 240.928 655.971 239.152 655.971 237.136ZM673.143 237.172C673.143 235.588 672.819 234.196 672.171 232.996C671.523 231.796 670.635 230.872 669.507 230.224C668.403 229.576 667.179 229.252 665.835 229.252C664.443 229.252 663.195 229.564 662.091 230.188C660.987 230.812 660.111 231.724 659.463 232.924C658.839 234.1 658.527 235.504 658.527 237.136C658.527 238.744 658.839 240.16 659.463 241.384C660.111 242.584 660.987 243.508 662.091 244.156C663.195 244.78 664.443 245.092 665.835 245.092C667.179 245.092 668.403 244.768 669.507 244.12C670.635 243.472 671.523 242.548 672.171 241.348C672.819 240.148 673.143 238.756 673.143 237.172ZM680.624 237.136C680.624 235.12 681.032 233.356 681.848 231.844C682.664 230.308 683.78 229.132 685.196 228.316C686.636 227.476 688.256 227.056 690.056 227.056C691.784 227.056 693.344 227.476 694.736 228.316C696.128 229.156 697.148 230.248 697.796 231.592V220.36H700.316V247H697.796V242.608C697.196 243.976 696.212 245.104 694.844 245.992C693.476 246.856 691.868 247.288 690.02 247.288C688.22 247.288 686.6 246.868 685.16 246.028C683.744 245.188 682.628 244 681.812 242.464C681.02 240.928 680.624 239.152 680.624 237.136ZM697.796 237.172C697.796 235.588 697.472 234.196 696.824 232.996C696.176 231.796 695.288 230.872 694.16 230.224C693.056 229.576 691.832 229.252 690.488 229.252C689.096 229.252 687.848 229.564 686.744 230.188C685.64 230.812 684.764 231.724 684.116 232.924C683.492 234.1 683.18 235.504 683.18 237.136C683.18 238.744 683.492 240.16 684.116 241.384C684.764 242.584 685.64 243.508 686.744 244.156C687.848 244.78 689.096 245.092 690.488 245.092C691.832 245.092 693.056 244.768 694.16 244.12C695.288 243.472 696.176 242.548 696.824 241.348C697.472 240.148 697.796 238.756 697.796 237.172ZM724.213 236.164C724.213 237.028 724.189 237.688 724.141 238.144H707.833C707.905 239.632 708.265 240.904 708.913 241.96C709.561 243.016 710.413 243.82 711.469 244.372C712.525 244.9 713.677 245.164 714.925 245.164C716.557 245.164 717.925 244.768 719.029 243.976C720.157 243.184 720.901 242.116 721.261 240.772H723.925C723.445 242.692 722.413 244.264 720.829 245.488C719.269 246.688 717.301 247.288 714.925 247.288C713.077 247.288 711.421 246.88 709.957 246.064C708.493 245.224 707.341 244.048 706.501 242.536C705.685 241 705.277 239.212 705.277 237.172C705.277 235.132 705.685 233.344 706.501 231.808C707.317 230.272 708.457 229.096 709.921 228.28C711.385 227.464 713.053 227.056 714.925 227.056C716.797 227.056 718.429 227.464 719.821 228.28C721.237 229.096 722.317 230.2 723.061 231.592C723.829 232.96 724.213 234.484 724.213 236.164ZM721.657 236.092C721.681 234.628 721.381 233.38 720.757 232.348C720.157 231.316 719.329 230.536 718.273 230.008C717.217 229.48 716.065 229.216 714.817 229.216C712.945 229.216 711.349 229.816 710.029 231.016C708.709 232.216 707.977 233.908 707.833 236.092H721.657ZM731.704 230.836C732.256 229.612 733.096 228.664 734.224 227.992C735.376 227.32 736.78 226.984 738.436 226.984V229.612H737.752C735.928 229.612 734.464 230.104 733.36 231.088C732.256 232.072 731.704 233.716 731.704 236.02V247H729.184V227.344H731.704V230.836ZM749.355 247.288C747.099 247.288 745.251 246.772 743.811 245.74C742.395 244.684 741.603 243.256 741.435 241.456H744.027C744.147 242.56 744.663 243.46 745.575 244.156C746.511 244.828 747.759 245.164 749.319 245.164C750.687 245.164 751.755 244.84 752.523 244.192C753.315 243.544 753.711 242.74 753.711 241.78C753.711 241.108 753.495 240.556 753.063 240.124C752.631 239.692 752.079 239.356 751.407 239.116C750.759 238.852 749.871 238.576 748.743 238.288C747.279 237.904 746.091 237.52 745.179 237.136C744.267 236.752 743.487 236.188 742.839 235.444C742.215 234.676 741.903 233.656 741.903 232.384C741.903 231.424 742.191 230.536 742.767 229.72C743.343 228.904 744.159 228.256 745.215 227.776C746.271 227.296 747.471 227.056 748.815 227.056C750.927 227.056 752.631 227.596 753.927 228.676C755.223 229.732 755.919 231.196 756.015 233.068H753.495C753.423 231.916 752.967 230.992 752.127 230.296C751.311 229.576 750.183 229.216 748.743 229.216C747.471 229.216 746.439 229.516 745.647 230.116C744.855 230.716 744.459 231.46 744.459 232.348C744.459 233.116 744.687 233.752 745.143 234.256C745.623 234.736 746.211 235.12 746.907 235.408C747.603 235.672 748.539 235.972 749.715 236.308C751.131 236.692 752.259 237.064 753.099 237.424C753.939 237.784 754.659 238.312 755.259 239.008C755.859 239.704 756.171 240.628 756.195 241.78C756.195 242.836 755.907 243.784 755.331 244.624C754.755 245.44 753.951 246.088 752.919 246.568C751.887 247.048 750.699 247.288 749.355 247.288ZM761.73 247.18C761.202 247.18 760.758 247 760.398 246.64C760.062 246.28 759.894 245.836 759.894 245.308C759.894 244.78 760.062 244.348 760.398 244.012C760.758 243.652 761.202 243.472 761.73 243.472C762.234 243.472 762.654 243.652 762.99 244.012C763.35 244.348 763.53 244.78 763.53 245.308C763.53 245.836 763.35 246.28 762.99 246.64C762.654 247 762.234 247.18 761.73 247.18Z" fill="white"/>
</svg>
