<svg width="815" height="458" viewBox="0 0 815 458" fill="none" xmlns="http://www.w3.org/2000/svg">
    <rect x="158.667" y="234" width="14.2222" height="72" rx="7.11111" fill="url(#paint0_linear_22_150)"/>
    <rect x="105.333" y="234" width="14.2222" height="72" rx="7.11111" fill="url(#paint1_linear_22_150)"/>
    <rect x="185.333" y="210" width="14.2222" height="96" rx="7.11111" fill="url(#paint2_linear_22_150)"/>
    <rect x="78.6665" y="210" width="14.2222" height="96" rx="7.11111" fill="url(#paint3_linear_22_150)"/>
    <rect x="212" y="178" width="14.2222" height="128" rx="7.11111" fill="url(#paint4_linear_22_150)"/>
    <rect x="52" y="178" width="14.2222" height="128" rx="7.11111" fill="url(#paint5_linear_22_150)"/>
    <rect x="132" y="258" width="14.2222" height="48" rx="7.11111" fill="url(#paint6_linear_22_150)"/>
    <path d="M309.472 264.472C309.472 267.544 309.387 269.891 309.216 271.512H251.232C251.488 276.803 252.768 281.325 255.072 285.08C257.376 288.835 260.405 291.693 264.16 293.656C267.915 295.533 272.011 296.472 276.448 296.472C282.251 296.472 287.115 295.064 291.04 292.248C295.051 289.432 297.696 285.635 298.976 280.856H308.448C306.741 287.683 303.072 293.272 297.44 297.624C291.893 301.891 284.896 304.024 276.448 304.024C269.877 304.024 263.989 302.573 258.784 299.672C253.579 296.685 249.483 292.504 246.496 287.128C243.595 281.667 242.144 275.309 242.144 268.056C242.144 260.803 243.595 254.445 246.496 248.984C249.397 243.523 253.451 239.341 258.656 236.44C263.861 233.539 269.792 232.088 276.448 232.088C283.104 232.088 288.907 233.539 293.856 236.44C298.891 239.341 302.731 243.267 305.376 248.216C308.107 253.08 309.472 258.499 309.472 264.472ZM300.384 264.216C300.469 259.011 299.403 254.573 297.184 250.904C295.051 247.235 292.107 244.461 288.352 242.584C284.597 240.707 280.501 239.768 276.064 239.768C269.408 239.768 263.733 241.901 259.04 246.168C254.347 250.435 251.744 256.451 251.232 264.216H300.384ZM359.913 231.832C368.276 231.832 375.102 234.435 380.393 239.64C385.684 244.76 388.329 252.227 388.329 262.04V303H379.497V263.064C379.497 255.469 377.577 249.667 373.737 245.656C369.982 241.645 364.82 239.64 358.249 239.64C351.508 239.64 346.132 241.773 342.121 246.04C338.11 250.307 336.105 256.579 336.105 264.856V303H327.145V233.112H336.105V245.016C338.324 240.749 341.524 237.507 345.705 235.288C349.886 232.984 354.622 231.832 359.913 231.832ZM421.073 240.664V284.056C421.073 288.323 421.884 291.267 423.505 292.888C425.126 294.509 427.985 295.32 432.081 295.32H440.273V303H430.673C424.358 303 419.665 301.549 416.593 298.648C413.521 295.661 411.985 290.797 411.985 284.056V240.664H402.257V233.112H411.985V215.576H421.073V233.112H440.273V240.664H421.073ZM460.81 219.928C459.018 219.928 457.482 219.288 456.202 218.008C454.922 216.728 454.282 215.149 454.282 213.272C454.282 211.395 454.922 209.859 456.202 208.664C457.482 207.384 459.018 206.744 460.81 206.744C462.602 206.744 464.138 207.384 465.418 208.664C466.698 209.859 467.338 211.395 467.338 213.272C467.338 215.149 466.698 216.728 465.418 218.008C464.138 219.288 462.602 219.928 460.81 219.928ZM465.29 233.112V303H456.33V233.112H465.29ZM511.692 294.296L535.244 233.112H544.716L516.684 303H506.572L478.54 233.112H488.14L511.692 294.296ZM588.732 304.024C582.161 304.024 576.231 302.573 570.94 299.672C565.735 296.685 561.596 292.504 558.524 287.128C555.537 281.667 554.044 275.309 554.044 268.056C554.044 260.803 555.58 254.488 558.652 249.112C561.724 243.651 565.905 239.469 571.196 236.568C576.487 233.581 582.417 232.088 588.988 232.088C595.559 232.088 601.489 233.581 606.78 236.568C612.156 239.469 616.337 243.651 619.324 249.112C622.396 254.488 623.932 260.803 623.932 268.056C623.932 275.224 622.396 281.539 619.324 287C616.252 292.461 612.028 296.685 606.652 299.672C601.276 302.573 595.303 304.024 588.732 304.024ZM588.732 296.216C593.34 296.216 597.607 295.192 601.532 293.144C605.457 291.011 608.615 287.853 611.004 283.672C613.479 279.405 614.716 274.2 614.716 268.056C614.716 261.912 613.521 256.749 611.132 252.568C608.743 248.301 605.585 245.144 601.66 243.096C597.735 240.963 593.468 239.896 588.86 239.896C584.252 239.896 579.985 240.963 576.06 243.096C572.135 245.144 568.977 248.301 566.588 252.568C564.284 256.749 563.132 261.912 563.132 268.056C563.132 274.2 564.284 279.405 566.588 283.672C568.977 287.853 572.092 291.011 575.932 293.144C579.857 295.192 584.124 296.216 588.732 296.216ZM643.081 303.64C641.204 303.64 639.625 303 638.345 301.72C637.15 300.44 636.553 298.861 636.553 296.984C636.553 295.107 637.15 293.571 638.345 292.376C639.625 291.096 641.204 290.456 643.081 290.456C644.873 290.456 646.366 291.096 647.561 292.376C648.841 293.571 649.481 295.107 649.481 296.984C649.481 298.861 648.841 300.44 647.561 301.72C646.366 303 644.873 303.64 643.081 303.64ZM717.915 281.752H677.211L669.403 303H659.931L692.571 214.68H702.683L735.195 303H725.723L717.915 281.752ZM715.227 274.328L697.563 225.944L679.899 274.328H715.227ZM759.815 213.528V303H750.855V213.528H759.815Z" fill="url(#paint7_linear_22_150)"/>
    <path d="M125.4 330.888V340.284H134.94V342.372H125.4V351.912H136.02V354H122.88V328.8H136.02V330.888H125.4ZM164.745 333.984C167.049 333.984 168.921 334.716 170.361 336.18C171.825 337.62 172.557 339.72 172.557 342.48V354H170.073V342.768C170.073 340.632 169.557 339 168.525 337.872C167.493 336.744 166.089 336.18 164.313 336.18C162.465 336.18 160.989 336.792 159.885 338.016C158.781 339.24 158.229 341.016 158.229 343.344V354H155.745V342.768C155.745 340.632 155.229 339 154.197 337.872C153.165 336.744 151.749 336.18 149.949 336.18C148.101 336.18 146.625 336.792 145.521 338.016C144.417 339.24 143.865 341.016 143.865 343.344V354H141.345V334.344H143.865V337.728C144.489 336.504 145.377 335.58 146.529 334.956C147.681 334.308 148.965 333.984 150.381 333.984C152.085 333.984 153.573 334.392 154.845 335.208C156.141 336.024 157.077 337.224 157.653 338.808C158.181 337.248 159.081 336.06 160.353 335.244C161.649 334.404 163.113 333.984 164.745 333.984ZM180.998 338.664C181.622 337.344 182.606 336.252 183.95 335.388C185.318 334.5 186.938 334.056 188.81 334.056C190.586 334.056 192.182 334.476 193.598 335.316C195.038 336.132 196.154 337.308 196.946 338.844C197.762 340.356 198.17 342.12 198.17 344.136C198.17 346.152 197.762 347.928 196.946 349.464C196.154 351 195.038 352.188 193.598 353.028C192.182 353.868 190.586 354.288 188.81 354.288C186.962 354.288 185.354 353.856 183.986 352.992C182.618 352.104 181.622 351 180.998 349.68V363.288H178.514V334.344H180.998V338.664ZM195.614 344.136C195.614 342.504 195.29 341.1 194.642 339.924C194.018 338.724 193.154 337.812 192.05 337.188C190.946 336.564 189.698 336.252 188.306 336.252C186.962 336.252 185.726 336.576 184.598 337.224C183.494 337.872 182.618 338.796 181.97 339.996C181.322 341.196 180.998 342.588 180.998 344.172C180.998 345.756 181.322 347.148 181.97 348.348C182.618 349.548 183.494 350.472 184.598 351.12C185.726 351.768 186.962 352.092 188.306 352.092C189.698 352.092 190.946 351.78 192.05 351.156C193.154 350.508 194.018 349.584 194.642 348.384C195.29 347.16 195.614 345.744 195.614 344.136ZM211.771 354.288C209.923 354.288 208.255 353.88 206.767 353.064C205.303 352.224 204.139 351.048 203.275 349.536C202.435 348 202.015 346.212 202.015 344.172C202.015 342.132 202.447 340.356 203.311 338.844C204.175 337.308 205.351 336.132 206.839 335.316C208.327 334.476 209.995 334.056 211.843 334.056C213.691 334.056 215.359 334.476 216.847 335.316C218.359 336.132 219.535 337.308 220.375 338.844C221.239 340.356 221.671 342.132 221.671 344.172C221.671 346.188 221.239 347.964 220.375 349.5C219.511 351.036 218.323 352.224 216.811 353.064C215.299 353.88 213.619 354.288 211.771 354.288ZM211.771 352.092C213.067 352.092 214.267 351.804 215.371 351.228C216.475 350.628 217.363 349.74 218.035 348.564C218.731 347.364 219.079 345.9 219.079 344.172C219.079 342.444 218.743 340.992 218.071 339.816C217.399 338.616 216.511 337.728 215.407 337.152C214.303 336.552 213.103 336.252 211.807 336.252C210.511 336.252 209.311 336.552 208.207 337.152C207.103 337.728 206.215 338.616 205.543 339.816C204.895 340.992 204.571 342.444 204.571 344.172C204.571 345.9 204.895 347.364 205.543 348.564C206.215 349.74 207.091 350.628 208.171 351.228C209.275 351.804 210.475 352.092 211.771 352.092ZM252.545 334.344L246.389 354H243.869L238.433 337.512L232.997 354H230.441L224.285 334.344H226.841L231.737 351.444L237.245 334.344H239.765L245.201 351.48L250.061 334.344H252.545ZM274.124 343.164C274.124 344.028 274.1 344.688 274.052 345.144H257.744C257.816 346.632 258.176 347.904 258.824 348.96C259.472 350.016 260.324 350.82 261.38 351.372C262.436 351.9 263.588 352.164 264.836 352.164C266.468 352.164 267.836 351.768 268.94 350.976C270.068 350.184 270.812 349.116 271.172 347.772H273.836C273.356 349.692 272.324 351.264 270.74 352.488C269.18 353.688 267.212 354.288 264.836 354.288C262.988 354.288 261.332 353.88 259.868 353.064C258.404 352.224 257.252 351.048 256.412 349.536C255.596 348 255.188 346.212 255.188 344.172C255.188 342.132 255.596 340.344 256.412 338.808C257.228 337.272 258.368 336.096 259.832 335.28C261.296 334.464 262.964 334.056 264.836 334.056C266.708 334.056 268.34 334.464 269.732 335.28C271.148 336.096 272.228 337.2 272.972 338.592C273.74 339.96 274.124 341.484 274.124 343.164ZM271.568 343.092C271.592 341.628 271.292 340.38 270.668 339.348C270.068 338.316 269.24 337.536 268.184 337.008C267.128 336.48 265.976 336.216 264.728 336.216C262.856 336.216 261.26 336.816 259.94 338.016C258.62 339.216 257.888 340.908 257.744 343.092H271.568ZM281.615 337.836C282.167 336.612 283.007 335.664 284.135 334.992C285.287 334.32 286.691 333.984 288.347 333.984V336.612H287.663C285.839 336.612 284.375 337.104 283.271 338.088C282.167 339.072 281.615 340.716 281.615 343.02V354H279.095V334.344H281.615V337.836ZM301.585 341.4C301.585 338.928 302.125 336.72 303.205 334.776C304.285 332.808 305.761 331.284 307.633 330.204C309.505 329.1 311.593 328.548 313.897 328.548C316.705 328.548 319.105 329.22 321.097 330.564C323.113 331.884 324.577 333.756 325.489 336.18H322.537C321.817 334.476 320.713 333.144 319.225 332.184C317.761 331.224 315.985 330.744 313.897 330.744C312.049 330.744 310.381 331.176 308.893 332.04C307.429 332.904 306.277 334.152 305.437 335.784C304.597 337.392 304.177 339.264 304.177 341.4C304.177 343.536 304.597 345.408 305.437 347.016C306.277 348.624 307.429 349.86 308.893 350.724C310.381 351.588 312.049 352.02 313.897 352.02C315.985 352.02 317.761 351.552 319.225 350.616C320.713 349.656 321.817 348.336 322.537 346.656H325.489C324.577 349.056 323.113 350.916 321.097 352.236C319.081 353.556 316.681 354.216 313.897 354.216C311.593 354.216 309.505 353.676 307.633 352.596C305.761 351.492 304.285 349.968 303.205 348.024C302.125 346.08 301.585 343.872 301.585 341.4ZM339.474 354.288C337.626 354.288 335.958 353.88 334.47 353.064C333.006 352.224 331.842 351.048 330.978 349.536C330.138 348 329.718 346.212 329.718 344.172C329.718 342.132 330.15 340.356 331.014 338.844C331.878 337.308 333.054 336.132 334.542 335.316C336.03 334.476 337.698 334.056 339.546 334.056C341.394 334.056 343.062 334.476 344.55 335.316C346.062 336.132 347.238 337.308 348.078 338.844C348.942 340.356 349.374 342.132 349.374 344.172C349.374 346.188 348.942 347.964 348.078 349.5C347.214 351.036 346.026 352.224 344.514 353.064C343.002 353.88 341.322 354.288 339.474 354.288ZM339.474 352.092C340.77 352.092 341.97 351.804 343.074 351.228C344.178 350.628 345.066 349.74 345.738 348.564C346.434 347.364 346.782 345.9 346.782 344.172C346.782 342.444 346.446 340.992 345.774 339.816C345.102 338.616 344.214 337.728 343.11 337.152C342.006 336.552 340.806 336.252 339.51 336.252C338.214 336.252 337.014 336.552 335.91 337.152C334.806 337.728 333.918 338.616 333.246 339.816C332.598 340.992 332.274 342.444 332.274 344.172C332.274 345.9 332.598 347.364 333.246 348.564C333.918 349.74 334.794 350.628 335.874 351.228C336.978 351.804 338.178 352.092 339.474 352.092ZM353.176 344.136C353.176 342.12 353.572 340.356 354.364 338.844C355.18 337.308 356.296 336.132 357.712 335.316C359.152 334.476 360.772 334.056 362.572 334.056C364.444 334.056 366.052 334.488 367.396 335.352C368.764 336.216 369.748 337.32 370.348 338.664V334.344H372.868V354H370.348V349.644C369.724 350.988 368.728 352.104 367.36 352.992C366.016 353.856 364.408 354.288 362.536 354.288C360.76 354.288 359.152 353.868 357.712 353.028C356.296 352.188 355.18 351 354.364 349.464C353.572 347.928 353.176 346.152 353.176 344.136ZM370.348 344.172C370.348 342.588 370.024 341.196 369.376 339.996C368.728 338.796 367.84 337.872 366.712 337.224C365.608 336.576 364.384 336.252 363.04 336.252C361.648 336.252 360.4 336.564 359.296 337.188C358.192 337.812 357.316 338.724 356.668 339.924C356.044 341.1 355.732 342.504 355.732 344.136C355.732 345.744 356.044 347.16 356.668 348.384C357.316 349.584 358.192 350.508 359.296 351.156C360.4 351.78 361.648 352.092 363.04 352.092C364.384 352.092 365.608 351.768 366.712 351.12C367.84 350.472 368.728 349.548 369.376 348.348C370.024 347.148 370.348 345.756 370.348 344.172ZM377.829 344.172C377.829 342.132 378.237 340.356 379.053 338.844C379.869 337.308 380.997 336.132 382.437 335.316C383.877 334.476 385.521 334.056 387.369 334.056C389.793 334.056 391.785 334.656 393.345 335.856C394.929 337.056 395.949 338.688 396.405 340.752H393.705C393.369 339.336 392.637 338.232 391.509 337.44C390.405 336.624 389.025 336.216 387.369 336.216C386.049 336.216 384.861 336.516 383.805 337.116C382.749 337.716 381.909 338.616 381.285 339.816C380.685 340.992 380.385 342.444 380.385 344.172C380.385 345.9 380.685 347.364 381.285 348.564C381.909 349.764 382.749 350.664 383.805 351.264C384.861 351.864 386.049 352.164 387.369 352.164C389.025 352.164 390.405 351.768 391.509 350.976C392.637 350.16 393.369 349.032 393.705 347.592H396.405C395.949 349.608 394.929 351.228 393.345 352.452C391.761 353.676 389.769 354.288 387.369 354.288C385.521 354.288 383.877 353.88 382.437 353.064C380.997 352.224 379.869 351.048 379.053 349.536C378.237 348 377.829 346.212 377.829 344.172ZM410.779 333.984C412.267 333.984 413.599 334.296 414.775 334.92C415.975 335.544 416.911 336.504 417.583 337.8C418.279 339.072 418.627 340.632 418.627 342.48V354H416.143V342.768C416.143 340.632 415.603 339 414.523 337.872C413.467 336.744 412.015 336.18 410.167 336.18C408.271 336.18 406.759 336.78 405.631 337.98C404.503 339.18 403.939 340.944 403.939 343.272V354H401.419V327.36H403.939V337.692C404.563 336.516 405.475 335.604 406.675 334.956C407.899 334.308 409.267 333.984 410.779 333.984ZM442.344 343.164C442.344 344.028 442.32 344.688 442.272 345.144H425.964C426.036 346.632 426.396 347.904 427.044 348.96C427.692 350.016 428.544 350.82 429.6 351.372C430.656 351.9 431.808 352.164 433.056 352.164C434.688 352.164 436.056 351.768 437.16 350.976C438.288 350.184 439.032 349.116 439.392 347.772H442.056C441.576 349.692 440.544 351.264 438.96 352.488C437.4 353.688 435.432 354.288 433.056 354.288C431.208 354.288 429.552 353.88 428.088 353.064C426.624 352.224 425.472 351.048 424.632 349.536C423.816 348 423.408 346.212 423.408 344.172C423.408 342.132 423.816 340.344 424.632 338.808C425.448 337.272 426.588 336.096 428.052 335.28C429.516 334.464 431.184 334.056 433.056 334.056C434.928 334.056 436.56 334.464 437.952 335.28C439.368 336.096 440.448 337.2 441.192 338.592C441.96 339.96 442.344 341.484 442.344 343.164ZM439.788 343.092C439.812 341.628 439.512 340.38 438.888 339.348C438.288 338.316 437.46 337.536 436.404 337.008C435.348 336.48 434.196 336.216 432.948 336.216C431.076 336.216 429.48 336.816 428.16 338.016C426.84 339.216 426.108 340.908 425.964 343.092H439.788ZM454.083 354.288C451.827 354.288 449.979 353.772 448.539 352.74C447.123 351.684 446.331 350.256 446.163 348.456H448.755C448.875 349.56 449.391 350.46 450.303 351.156C451.239 351.828 452.487 352.164 454.047 352.164C455.415 352.164 456.483 351.84 457.251 351.192C458.043 350.544 458.439 349.74 458.439 348.78C458.439 348.108 458.223 347.556 457.791 347.124C457.359 346.692 456.807 346.356 456.135 346.116C455.487 345.852 454.599 345.576 453.471 345.288C452.007 344.904 450.819 344.52 449.907 344.136C448.995 343.752 448.215 343.188 447.567 342.444C446.943 341.676 446.631 340.656 446.631 339.384C446.631 338.424 446.919 337.536 447.495 336.72C448.071 335.904 448.887 335.256 449.943 334.776C450.999 334.296 452.199 334.056 453.543 334.056C455.655 334.056 457.359 334.596 458.655 335.676C459.951 336.732 460.647 338.196 460.743 340.068H458.223C458.151 338.916 457.695 337.992 456.855 337.296C456.039 336.576 454.911 336.216 453.471 336.216C452.199 336.216 451.167 336.516 450.375 337.116C449.583 337.716 449.187 338.46 449.187 339.348C449.187 340.116 449.415 340.752 449.871 341.256C450.351 341.736 450.939 342.12 451.635 342.408C452.331 342.672 453.267 342.972 454.443 343.308C455.859 343.692 456.987 344.064 457.827 344.424C458.667 344.784 459.387 345.312 459.987 346.008C460.587 346.704 460.899 347.628 460.923 348.78C460.923 349.836 460.635 350.784 460.059 351.624C459.483 352.44 458.679 353.088 457.647 353.568C456.615 354.048 455.427 354.288 454.083 354.288ZM466.458 354.18C465.93 354.18 465.486 354 465.126 353.64C464.79 353.28 464.622 352.836 464.622 352.308C464.622 351.78 464.79 351.348 465.126 351.012C465.486 350.652 465.93 350.472 466.458 350.472C466.962 350.472 467.382 350.652 467.718 351.012C468.078 351.348 468.258 351.78 468.258 352.308C468.258 352.836 468.078 353.28 467.718 353.64C467.382 354 466.962 354.18 466.458 354.18ZM485.684 330.888V340.284H495.224V342.372H485.684V351.912H496.304V354H483.164V328.8H496.304V330.888H485.684ZM504.15 327.36V354H501.63V327.36H504.15ZM528 343.164C528 344.028 527.976 344.688 527.928 345.144H511.62C511.692 346.632 512.052 347.904 512.7 348.96C513.348 350.016 514.2 350.82 515.256 351.372C516.312 351.9 517.464 352.164 518.712 352.164C520.344 352.164 521.712 351.768 522.816 350.976C523.944 350.184 524.688 349.116 525.048 347.772H527.712C527.232 349.692 526.2 351.264 524.616 352.488C523.056 353.688 521.088 354.288 518.712 354.288C516.864 354.288 515.208 353.88 513.744 353.064C512.28 352.224 511.128 351.048 510.288 349.536C509.472 348 509.064 346.212 509.064 344.172C509.064 342.132 509.472 340.344 510.288 338.808C511.104 337.272 512.244 336.096 513.708 335.28C515.172 334.464 516.84 334.056 518.712 334.056C520.584 334.056 522.216 334.464 523.608 335.28C525.024 336.096 526.104 337.2 526.848 338.592C527.616 339.96 528 341.484 528 343.164ZM525.444 343.092C525.468 341.628 525.168 340.38 524.544 339.348C523.944 338.316 523.116 337.536 522.06 337.008C521.004 336.48 519.852 336.216 518.604 336.216C516.732 336.216 515.136 336.816 513.816 338.016C512.496 339.216 511.764 340.908 511.62 343.092H525.444ZM539.955 351.552L546.579 334.344H549.243L541.359 354H538.515L530.631 334.344H533.331L539.955 351.552ZM551.866 344.136C551.866 342.12 552.262 340.356 553.054 338.844C553.87 337.308 554.986 336.132 556.402 335.316C557.842 334.476 559.462 334.056 561.262 334.056C563.134 334.056 564.742 334.488 566.086 335.352C567.454 336.216 568.438 337.32 569.038 338.664V334.344H571.558V354H569.038V349.644C568.414 350.988 567.418 352.104 566.05 352.992C564.706 353.856 563.098 354.288 561.226 354.288C559.45 354.288 557.842 353.868 556.402 353.028C554.986 352.188 553.87 351 553.054 349.464C552.262 347.928 551.866 346.152 551.866 344.136ZM569.038 344.172C569.038 342.588 568.714 341.196 568.066 339.996C567.418 338.796 566.53 337.872 565.402 337.224C564.298 336.576 563.074 336.252 561.73 336.252C560.338 336.252 559.09 336.564 557.986 337.188C556.882 337.812 556.006 338.724 555.358 339.924C554.734 341.1 554.422 342.504 554.422 344.136C554.422 345.744 554.734 347.16 555.358 348.384C556.006 349.584 556.882 350.508 557.986 351.156C559.09 351.78 560.338 352.092 561.73 352.092C563.074 352.092 564.298 351.768 565.402 351.12C566.53 350.472 567.418 349.548 568.066 348.348C568.714 347.148 569.038 345.756 569.038 344.172ZM580.947 336.468V348.672C580.947 349.872 581.175 350.7 581.631 351.156C582.087 351.612 582.891 351.84 584.043 351.84H586.347V354H583.647C581.871 354 580.551 353.592 579.687 352.776C578.823 351.936 578.391 350.568 578.391 348.672V336.468H575.655V334.344H578.391V329.412H580.947V334.344H586.347V336.468H580.947ZM608.647 343.164C608.647 344.028 608.623 344.688 608.575 345.144H592.267C592.339 346.632 592.699 347.904 593.347 348.96C593.995 350.016 594.847 350.82 595.903 351.372C596.959 351.9 598.111 352.164 599.359 352.164C600.991 352.164 602.359 351.768 603.463 350.976C604.591 350.184 605.335 349.116 605.695 347.772H608.359C607.879 349.692 606.847 351.264 605.263 352.488C603.703 353.688 601.735 354.288 599.359 354.288C597.511 354.288 595.855 353.88 594.391 353.064C592.927 352.224 591.775 351.048 590.935 349.536C590.119 348 589.711 346.212 589.711 344.172C589.711 342.132 590.119 340.344 590.935 338.808C591.751 337.272 592.891 336.096 594.355 335.28C595.819 334.464 597.487 334.056 599.359 334.056C601.231 334.056 602.863 334.464 604.255 335.28C605.671 336.096 606.751 337.2 607.495 338.592C608.263 339.96 608.647 341.484 608.647 343.164ZM606.091 343.092C606.115 341.628 605.815 340.38 605.191 339.348C604.591 338.316 603.763 337.536 602.707 337.008C601.651 336.48 600.499 336.216 599.251 336.216C597.379 336.216 595.783 336.816 594.463 338.016C593.143 339.216 592.411 340.908 592.267 343.092H606.091ZM626.377 351.948H635.413V354H623.857V328.836H626.377V351.948ZM657.153 343.164C657.153 344.028 657.129 344.688 657.081 345.144H640.773C640.845 346.632 641.205 347.904 641.853 348.96C642.501 350.016 643.353 350.82 644.409 351.372C645.465 351.9 646.617 352.164 647.865 352.164C649.497 352.164 650.865 351.768 651.969 350.976C653.097 350.184 653.841 349.116 654.201 347.772H656.865C656.385 349.692 655.353 351.264 653.769 352.488C652.209 353.688 650.241 354.288 647.865 354.288C646.017 354.288 644.361 353.88 642.897 353.064C641.433 352.224 640.281 351.048 639.441 349.536C638.625 348 638.217 346.212 638.217 344.172C638.217 342.132 638.625 340.344 639.441 338.808C640.257 337.272 641.397 336.096 642.861 335.28C644.325 334.464 645.993 334.056 647.865 334.056C649.737 334.056 651.369 334.464 652.761 335.28C654.177 336.096 655.257 337.2 656.001 338.592C656.769 339.96 657.153 341.484 657.153 343.164ZM654.597 343.092C654.621 341.628 654.321 340.38 653.697 339.348C653.097 338.316 652.269 337.536 651.213 337.008C650.157 336.48 649.005 336.216 647.757 336.216C645.885 336.216 644.289 336.816 642.969 338.016C641.649 339.216 640.917 340.908 640.773 343.092H654.597ZM660.971 344.136C660.971 342.12 661.367 340.356 662.159 338.844C662.975 337.308 664.091 336.132 665.507 335.316C666.947 334.476 668.567 334.056 670.367 334.056C672.239 334.056 673.847 334.488 675.191 335.352C676.559 336.216 677.543 337.32 678.143 338.664V334.344H680.663V354H678.143V349.644C677.519 350.988 676.523 352.104 675.155 352.992C673.811 353.856 672.203 354.288 670.331 354.288C668.555 354.288 666.947 353.868 665.507 353.028C664.091 352.188 662.975 351 662.159 349.464C661.367 347.928 660.971 346.152 660.971 344.136ZM678.143 344.172C678.143 342.588 677.819 341.196 677.171 339.996C676.523 338.796 675.635 337.872 674.507 337.224C673.403 336.576 672.179 336.252 670.835 336.252C669.443 336.252 668.195 336.564 667.091 337.188C665.987 337.812 665.111 338.724 664.463 339.924C663.839 341.1 663.527 342.504 663.527 344.136C663.527 345.744 663.839 347.16 664.463 348.384C665.111 349.584 665.987 350.508 667.091 351.156C668.195 351.78 669.443 352.092 670.835 352.092C672.179 352.092 673.403 351.768 674.507 351.12C675.635 350.472 676.523 349.548 677.171 348.348C677.819 347.148 678.143 345.756 678.143 344.172ZM685.624 344.136C685.624 342.12 686.032 340.356 686.848 338.844C687.664 337.308 688.78 336.132 690.196 335.316C691.636 334.476 693.256 334.056 695.056 334.056C696.784 334.056 698.344 334.476 699.736 335.316C701.128 336.156 702.148 337.248 702.796 338.592V327.36H705.316V354H702.796V349.608C702.196 350.976 701.212 352.104 699.844 352.992C698.476 353.856 696.868 354.288 695.02 354.288C693.22 354.288 691.6 353.868 690.16 353.028C688.744 352.188 687.628 351 686.812 349.464C686.02 347.928 685.624 346.152 685.624 344.136ZM702.796 344.172C702.796 342.588 702.472 341.196 701.824 339.996C701.176 338.796 700.288 337.872 699.16 337.224C698.056 336.576 696.832 336.252 695.488 336.252C694.096 336.252 692.848 336.564 691.744 337.188C690.64 337.812 689.764 338.724 689.116 339.924C688.492 341.1 688.18 342.504 688.18 344.136C688.18 345.744 688.492 347.16 689.116 348.384C689.764 349.584 690.64 350.508 691.744 351.156C692.848 351.78 694.096 352.092 695.488 352.092C696.832 352.092 698.056 351.768 699.16 351.12C700.288 350.472 701.176 349.548 701.824 348.348C702.472 347.148 702.796 345.756 702.796 344.172ZM729.213 343.164C729.213 344.028 729.189 344.688 729.141 345.144H712.833C712.905 346.632 713.265 347.904 713.913 348.96C714.561 350.016 715.413 350.82 716.469 351.372C717.525 351.9 718.677 352.164 719.925 352.164C721.557 352.164 722.925 351.768 724.029 350.976C725.157 350.184 725.901 349.116 726.261 347.772H728.925C728.445 349.692 727.413 351.264 725.829 352.488C724.269 353.688 722.301 354.288 719.925 354.288C718.077 354.288 716.421 353.88 714.957 353.064C713.493 352.224 712.341 351.048 711.501 349.536C710.685 348 710.277 346.212 710.277 344.172C710.277 342.132 710.685 340.344 711.501 338.808C712.317 337.272 713.457 336.096 714.921 335.28C716.385 334.464 718.053 334.056 719.925 334.056C721.797 334.056 723.429 334.464 724.821 335.28C726.237 336.096 727.317 337.2 728.061 338.592C728.829 339.96 729.213 341.484 729.213 343.164ZM726.657 343.092C726.681 341.628 726.381 340.38 725.757 339.348C725.157 338.316 724.329 337.536 723.273 337.008C722.217 336.48 721.065 336.216 719.817 336.216C717.945 336.216 716.349 336.816 715.029 338.016C713.709 339.216 712.977 340.908 712.833 343.092H726.657ZM736.704 337.836C737.256 336.612 738.096 335.664 739.224 334.992C740.376 334.32 741.78 333.984 743.436 333.984V336.612H742.752C740.928 336.612 739.464 337.104 738.36 338.088C737.256 339.072 736.704 340.716 736.704 343.02V354H734.184V334.344H736.704V337.836ZM754.355 354.288C752.099 354.288 750.251 353.772 748.811 352.74C747.395 351.684 746.603 350.256 746.435 348.456H749.027C749.147 349.56 749.663 350.46 750.575 351.156C751.511 351.828 752.759 352.164 754.319 352.164C755.687 352.164 756.755 351.84 757.523 351.192C758.315 350.544 758.711 349.74 758.711 348.78C758.711 348.108 758.495 347.556 758.063 347.124C757.631 346.692 757.079 346.356 756.407 346.116C755.759 345.852 754.871 345.576 753.743 345.288C752.279 344.904 751.091 344.52 750.179 344.136C749.267 343.752 748.487 343.188 747.839 342.444C747.215 341.676 746.903 340.656 746.903 339.384C746.903 338.424 747.191 337.536 747.767 336.72C748.343 335.904 749.159 335.256 750.215 334.776C751.271 334.296 752.471 334.056 753.815 334.056C755.927 334.056 757.631 334.596 758.927 335.676C760.223 336.732 760.919 338.196 761.015 340.068H758.495C758.423 338.916 757.967 337.992 757.127 337.296C756.311 336.576 755.183 336.216 753.743 336.216C752.471 336.216 751.439 336.516 750.647 337.116C749.855 337.716 749.459 338.46 749.459 339.348C749.459 340.116 749.687 340.752 750.143 341.256C750.623 341.736 751.211 342.12 751.907 342.408C752.603 342.672 753.539 342.972 754.715 343.308C756.131 343.692 757.259 344.064 758.099 344.424C758.939 344.784 759.659 345.312 760.259 346.008C760.859 346.704 761.171 347.628 761.195 348.78C761.195 349.836 760.907 350.784 760.331 351.624C759.755 352.44 758.951 353.088 757.919 353.568C756.887 354.048 755.699 354.288 754.355 354.288ZM766.73 354.18C766.202 354.18 765.758 354 765.398 353.64C765.062 353.28 764.894 352.836 764.894 352.308C764.894 351.78 765.062 351.348 765.398 351.012C765.758 350.652 766.202 350.472 766.73 350.472C767.234 350.472 767.654 350.652 767.99 351.012C768.35 351.348 768.53 351.78 768.53 352.308C768.53 352.836 768.35 353.28 767.99 353.64C767.654 354 767.234 354.18 766.73 354.18Z" fill="url(#paint8_linear_22_150)"/>
    <path d="M70.296 119.096C70.296 121.976 69.352 124.296 67.464 126.056C65.576 127.816 62.744 128.696 58.968 128.696H52.2V143H48.84V109.448H58.968C62.712 109.448 65.528 110.328 67.416 112.088C69.336 113.848 70.296 116.184 70.296 119.096ZM58.968 125.816C64.216 125.816 66.84 123.576 66.84 119.096C66.84 116.856 66.216 115.16 64.968 114.008C63.72 112.856 61.72 112.28 58.968 112.28H52.2V125.816H58.968ZM87.8857 143.384C85.4218 143.384 83.1978 142.84 81.2137 141.752C79.2617 140.632 77.7097 139.064 76.5577 137.048C75.4377 135 74.8777 132.616 74.8777 129.896C74.8777 127.176 75.4537 124.808 76.6057 122.792C77.7577 120.744 79.3257 119.176 81.3098 118.088C83.2938 116.968 85.5178 116.408 87.9818 116.408C90.4458 116.408 92.6698 116.968 94.6537 118.088C96.6697 119.176 98.2378 120.744 99.3578 122.792C100.51 124.808 101.086 127.176 101.086 129.896C101.086 132.584 100.51 134.952 99.3578 137C98.2058 139.048 96.6218 140.632 94.6058 141.752C92.5898 142.84 90.3498 143.384 87.8857 143.384ZM87.8857 140.456C89.6138 140.456 91.2138 140.072 92.6858 139.304C94.1578 138.504 95.3418 137.32 96.2378 135.752C97.1658 134.152 97.6298 132.2 97.6298 129.896C97.6298 127.592 97.1818 125.656 96.2858 124.088C95.3898 122.488 94.2058 121.304 92.7338 120.536C91.2618 119.736 89.6618 119.336 87.9338 119.336C86.2057 119.336 84.6057 119.736 83.1338 120.536C81.6618 121.304 80.4778 122.488 79.5818 124.088C78.7177 125.656 78.2857 127.592 78.2857 129.896C78.2857 132.2 78.7177 134.152 79.5818 135.752C80.4778 137.32 81.6458 138.504 83.0858 139.304C84.5578 140.072 86.1578 140.456 87.8857 140.456ZM142.251 116.792L134.043 143H130.683L123.435 121.016L116.187 143H112.779L104.571 116.792H107.979L114.507 139.592L121.851 116.792H125.211L132.459 139.64L138.939 116.792H142.251ZM171.023 128.552C171.023 129.704 170.991 130.584 170.927 131.192H149.183C149.279 133.176 149.759 134.872 150.623 136.28C151.487 137.688 152.623 138.76 154.031 139.496C155.439 140.2 156.975 140.552 158.639 140.552C160.815 140.552 162.639 140.024 164.111 138.968C165.615 137.912 166.607 136.488 167.087 134.696H170.639C169.999 137.256 168.623 139.352 166.511 140.984C164.431 142.584 161.807 143.384 158.639 143.384C156.175 143.384 153.967 142.84 152.015 141.752C150.063 140.632 148.527 139.064 147.407 137.048C146.319 135 145.775 132.616 145.775 129.896C145.775 127.176 146.319 124.792 147.407 122.744C148.495 120.696 150.015 119.128 151.967 118.04C153.919 116.952 156.143 116.408 158.639 116.408C161.135 116.408 163.311 116.952 165.167 118.04C167.055 119.128 168.495 120.6 169.487 122.456C170.511 124.28 171.023 126.312 171.023 128.552ZM167.615 128.456C167.647 126.504 167.247 124.84 166.415 123.464C165.615 122.088 164.511 121.048 163.103 120.344C161.695 119.64 160.159 119.288 158.495 119.288C155.999 119.288 153.871 120.088 152.111 121.688C150.351 123.288 149.375 125.544 149.183 128.456H167.615ZM181.011 121.448C181.747 119.816 182.867 118.552 184.371 117.656C185.907 116.76 187.779 116.312 189.987 116.312V119.816H189.075C186.643 119.816 184.691 120.472 183.219 121.784C181.747 123.096 181.011 125.288 181.011 128.36V143H177.651V116.792H181.011V121.448ZM219.233 128.552C219.233 129.704 219.201 130.584 219.137 131.192H197.393C197.489 133.176 197.969 134.872 198.833 136.28C199.697 137.688 200.833 138.76 202.241 139.496C203.649 140.2 205.185 140.552 206.849 140.552C209.025 140.552 210.849 140.024 212.321 138.968C213.825 137.912 214.817 136.488 215.297 134.696H218.849C218.209 137.256 216.833 139.352 214.721 140.984C212.641 142.584 210.017 143.384 206.849 143.384C204.385 143.384 202.177 142.84 200.225 141.752C198.273 140.632 196.737 139.064 195.617 137.048C194.529 135 193.985 132.616 193.985 129.896C193.985 127.176 194.529 124.792 195.617 122.744C196.705 120.696 198.225 119.128 200.177 118.04C202.129 116.952 204.353 116.408 206.849 116.408C209.345 116.408 211.521 116.952 213.377 118.04C215.265 119.128 216.705 120.6 217.697 122.456C218.721 124.28 219.233 126.312 219.233 128.552ZM215.825 128.456C215.857 126.504 215.457 124.84 214.625 123.464C213.825 122.088 212.721 121.048 211.313 120.344C209.905 119.64 208.369 119.288 206.705 119.288C204.209 119.288 202.081 120.088 200.321 121.688C198.561 123.288 197.585 125.544 197.393 128.456H215.825ZM224.325 129.848C224.325 127.16 224.869 124.808 225.957 122.792C227.045 120.744 228.533 119.176 230.421 118.088C232.341 116.968 234.501 116.408 236.901 116.408C239.205 116.408 241.285 116.968 243.141 118.088C244.997 119.208 246.357 120.664 247.221 122.456V107.48H250.581V143H247.221V137.144C246.421 138.968 245.109 140.472 243.285 141.656C241.461 142.808 239.317 143.384 236.853 143.384C234.453 143.384 232.293 142.824 230.373 141.704C228.485 140.584 226.997 139 225.909 136.952C224.853 134.904 224.325 132.536 224.325 129.848ZM247.221 129.896C247.221 127.784 246.789 125.928 245.925 124.328C245.061 122.728 243.877 121.496 242.373 120.632C240.901 119.768 239.269 119.336 237.477 119.336C235.621 119.336 233.957 119.752 232.485 120.584C231.013 121.416 229.845 122.632 228.981 124.232C228.149 125.8 227.733 127.672 227.733 129.848C227.733 131.992 228.149 133.88 228.981 135.512C229.845 137.112 231.013 138.344 232.485 139.208C233.957 140.04 235.621 140.456 237.477 140.456C239.269 140.456 240.901 140.024 242.373 139.16C243.877 138.296 245.061 137.064 245.925 135.464C246.789 133.864 247.221 132.008 247.221 129.896ZM288.079 125.672C289.967 126.024 291.567 126.984 292.879 128.552C294.191 130.12 294.847 131.944 294.847 134.024C294.847 135.72 294.415 137.256 293.551 138.632C292.719 139.976 291.487 141.048 289.855 141.848C288.223 142.616 286.271 143 283.999 143H272.383V109.448H283.663C287.055 109.448 289.631 110.232 291.391 111.8C293.183 113.368 294.079 115.4 294.079 117.896C294.079 119.976 293.519 121.672 292.399 122.984C291.279 124.264 289.839 125.16 288.079 125.672ZM275.743 124.28H283.567C285.839 124.28 287.583 123.752 288.799 122.696C290.047 121.608 290.671 120.12 290.671 118.232C290.671 116.376 290.047 114.92 288.799 113.864C287.583 112.808 285.791 112.28 283.423 112.28H275.743V124.28ZM283.759 140.168C286.191 140.168 288.079 139.592 289.423 138.44C290.799 137.288 291.487 135.704 291.487 133.688C291.487 131.672 290.767 130.072 289.327 128.888C287.919 127.672 286.015 127.064 283.615 127.064H275.743V140.168H283.759ZM323.104 116.792L307.552 155.336H304.048L309.136 142.856L298.384 116.792H302.08L311.008 139.16L319.648 116.792H323.104Z" fill="url(#paint9_linear_22_150)"/>
    <defs>
        <linearGradient id="paint0_linear_22_150" x1="165.778" y1="306" x2="165.778" y2="234" gradientUnits="userSpaceOnUse">
            <stop stop-color="#0B3D91"/>
            <stop offset="1" stop-color="#345EC2"/>
        </linearGradient>
        <linearGradient id="paint1_linear_22_150" x1="112.445" y1="306" x2="112.445" y2="234" gradientUnits="userSpaceOnUse">
            <stop stop-color="#0B3D91"/>
            <stop offset="1" stop-color="#345EC2"/>
        </linearGradient>
        <linearGradient id="paint2_linear_22_150" x1="192.445" y1="306" x2="192.445" y2="210" gradientUnits="userSpaceOnUse">
            <stop stop-color="#0B3D91"/>
            <stop offset="1" stop-color="#345EC2"/>
        </linearGradient>
        <linearGradient id="paint3_linear_22_150" x1="85.7776" y1="306" x2="85.7776" y2="210" gradientUnits="userSpaceOnUse">
            <stop stop-color="#0B3D91"/>
            <stop offset="1" stop-color="#345EC2"/>
        </linearGradient>
        <linearGradient id="paint4_linear_22_150" x1="219.111" y1="306" x2="219.111" y2="178" gradientUnits="userSpaceOnUse">
            <stop stop-color="#0B3D91"/>
            <stop offset="1" stop-color="#345EC2"/>
        </linearGradient>
        <linearGradient id="paint5_linear_22_150" x1="59.1111" y1="306" x2="59.1111" y2="178" gradientUnits="userSpaceOnUse">
            <stop stop-color="#0B3D91"/>
            <stop offset="1" stop-color="#345EC2"/>
        </linearGradient>
        <linearGradient id="paint6_linear_22_150" x1="139.111" y1="306" x2="139.111" y2="258" gradientUnits="userSpaceOnUse">
            <stop stop-color="#0B3D91"/>
            <stop offset="1" stop-color="#345EC2"/>
        </linearGradient>
        <linearGradient id="paint7_linear_22_150" x1="503" y1="354" x2="503" y2="162" gradientUnits="userSpaceOnUse">
            <stop stop-color="#0B3D91"/>
            <stop offset="1" stop-color="#345EC2"/>
        </linearGradient>
        <linearGradient id="paint8_linear_22_150" x1="445" y1="368" x2="445" y2="314" gradientUnits="userSpaceOnUse">
            <stop stop-color="#0B3D91"/>
            <stop offset="1" stop-color="#345EC2"/>
        </linearGradient>
        <linearGradient id="paint9_linear_22_150" x1="184.5" y1="162" x2="184.5" y2="90" gradientUnits="userSpaceOnUse">
            <stop stop-color="#0B3D91"/>
            <stop offset="1" stop-color="#345EC2"/>
        </linearGradient>
    </defs>
</svg>
